<?xml version="1.0" encoding="UTF-8"?>
<!DOCTYPE svg PUBLIC "-//W3C//DTD SVG 1.1//EN" "http://www.w3.org/Graphics/SVG/1.1/DTD/svg11.dtd">
<!-- Creator: CorelDRAW (Versión de evaluación) -->
<svg xmlns="http://www.w3.org/2000/svg" xml:space="preserve" width="48px" height="48px" version="1.1" style="shape-rendering:geometricPrecision; text-rendering:geometricPrecision; image-rendering:optimizeQuality; fill-rule:evenodd; clip-rule:evenodd"
viewBox="0 0 303.49 303.49"
 xmlns:xlink="http://www.w3.org/1999/xlink"
 xmlns:xodm="http://www.corel.com/coreldraw/odm/2003">
 <defs>
  <style type="text/css">
   <![CDATA[
    .fil0 {fill:url(#id0)}
    .fil2 {fill:url(#id1)}
    .fil1 {fill:url(#id2)}
   ]]>
  </style>
  <linearGradient id="id0" gradientUnits="userSpaceOnUse" x1="-26.08" y1="304.1" x2="-26.02" y2="502.35">
   <stop offset="0" style="stop-opacity:1; stop-color:#1468B1"/>
   <stop offset="1" style="stop-opacity:1; stop-color:#7597B3"/>
  </linearGradient>
  <linearGradient id="id1" gradientUnits="userSpaceOnUse" x1="-23.24" y1="313.87" x2="-82.09" y2="313.82">
   <stop offset="0" style="stop-opacity:1; stop-color:#31B4E8"/>
   <stop offset="1" style="stop-opacity:1; stop-color:#DCE6E6"/>
  </linearGradient>
  <linearGradient id="id2" gradientUnits="userSpaceOnUse" xlink:href="#id1" x1="-25.3" y1="445.13" x2="-122.32" y2="445.18">
  </linearGradient>
 </defs>
<symbol id="user" viewBox="-175.74 200.07 303.49 303.49">
 <circle class="fil0" cx="-24" cy="351.81" r="151.75"/>
 <path class="fil1" d="M-23.63 392.39c28.1,0 53.64,8.83 72.12,23.06 18.75,14.43 29.81,26.28 29.81,48.44 0,0 -38.76,39.67 -102.29,39.67 -63.54,0 -101.66,-39.09 -101.66,-39.09 0,-22.16 11.14,-34.59 29.88,-49.02 18.49,-14.24 44.02,-23.06 72.14,-23.06z"/>
 <ellipse class="fil2" cx="-23.25" cy="313.89" rx="58.85" ry="58.28"/>
</symbol>
 <g id="Capa_x0020_1">
  <metadata id="CorelCorpID_0Corel-Layer"/>
  <use width="303.49" height="303.49" xlink:href="#user"/>
 </g>
</svg>
