<?xml version="1.0" encoding="UTF-8"?>
<!DOCTYPE svg PUBLIC "-//W3C//DTD SVG 1.1//EN" "http://www.w3.org/Graphics/SVG/1.1/DTD/svg11.dtd">
<!-- Creator: CorelDRAW (Versión de evaluación) -->
<svg xmlns="http://www.w3.org/2000/svg" xml:space="preserve" width="1492px" height="1796px" version="1.1" style="shape-rendering:geometricPrecision; text-rendering:geometricPrecision; image-rendering:optimizeQuality; fill-rule:evenodd; clip-rule:evenodd"
viewBox="0 0 1664.46 2002.89"
 xmlns:xlink="http://www.w3.org/1999/xlink"
 xmlns:xodm="http://www.corel.com/coreldraw/odm/2003">
 <defs>
  <style type="text/css">
   <![CDATA[
    .str0 {stroke:#373435;stroke-width:79.03;stroke-miterlimit:22.9256}
    .str1 {stroke:#373435;stroke-width:6.59;stroke-miterlimit:22.9256}
    .str4 {stroke:#282829;stroke-width:19.76;stroke-miterlimit:22.9256}
    .str2 {stroke:#373435;stroke-width:2.63;stroke-miterlimit:22.9256}
    .str3 {stroke:#282829;stroke-width:2.63;stroke-miterlimit:22.9256}
    .str7 {stroke:#282829;stroke-width:13.17;stroke-linecap:round;stroke-miterlimit:38.2016}
    .str6 {stroke:#282829;stroke-width:13.17;stroke-linecap:round;stroke-linejoin:round;stroke-miterlimit:22.9256}
    .str8 {stroke:#282829;stroke-width:19.76;stroke-linecap:round;stroke-linejoin:round;stroke-miterlimit:22.9256}
    .str5 {stroke:#282829;stroke-width:19.76;stroke-linecap:round;stroke-linejoin:round;stroke-miterlimit:38.2016}
    .fil0 {fill:none}
    .fil71 {fill:#FEFEFE}
    .fil263 {fill:#FEFEFE}
    .fil266 {fill:#373435}
    .fil262 {fill:#373435}
    .fil70 {fill:#FEFEFD}
    .fil72 {fill:#FEFDFC}
    .fil73 {fill:#FEFBFA}
    .fil74 {fill:#FEFAF8}
    .fil75 {fill:#FEF9F6}
    .fil76 {fill:#FEF8F5}
    .fil77 {fill:#FEF7F4}
    .fil78 {fill:#FEF6F2}
    .fil79 {fill:#FEF5F1}
    .fil80 {fill:#FEF4F0}
    .fil204 {fill:#FCFEFE}
    .fil69 {fill:#FDFEFD}
    .fil68 {fill:#FDFDFB}
    .fil203 {fill:#FCFCFD}
    .fil81 {fill:#FCF2ED}
    .fil82 {fill:#FCF1EC}
    .fil83 {fill:#FCF0EA}
    .fil84 {fill:#FCEEE7}
    .fil85 {fill:#FCECE4}
    .fil86 {fill:#FCEAE2}
    .fil87 {fill:#FCE8DE}
    .fil67 {fill:#FBFDFB}
    .fil66 {fill:#FBFDFA}
    .fil202 {fill:#FBFCFD}
    .fil88 {fill:#FAE4DA}
    .fil89 {fill:#FAE1D5}
    .fil90 {fill:#F8DDD0}
    .fil91 {fill:#F8D9CB}
    .fil65 {fill:#FAFCF9}
    .fil201 {fill:#F9FAFC}
    .fil92 {fill:#F6D4C6}
    .fil93 {fill:#F6CFBF}
    .fil94 {fill:#F6CAB8}
    .fil64 {fill:#F8FBF8}
    .fil200 {fill:#F8F9FC}
    .fil199 {fill:#F8F8FC}
    .fil95 {fill:#F4C3B0}
    .fil96 {fill:#F3BCA8}
    .fil63 {fill:#F7FBF7}
    .fil198 {fill:#F6F8FB}
    .fil97 {fill:#F2B49E}
    .fil98 {fill:#F0AA93}
    .fil62 {fill:#F6FAF6}
    .fil197 {fill:#F5F6FB}
    .fil99 {fill:#EEA088}
    .fil61 {fill:#F5FAF4}
    .fil196 {fill:#F4F6FB}
    .fil100 {fill:#EC967D}
    .fil60 {fill:#F4F9F3}
    .fil205 {fill:#F3F4FA}
    .fil195 {fill:#F3F4F9}
    .fil101 {fill:#EA8C72}
    .fil59 {fill:#F3F9F2}
    .fil206 {fill:#F2F3F9}
    .fil102 {fill:#E98369}
    .fil103 {fill:#E77B62}
    .fil58 {fill:#F2F8F0}
    .fil194 {fill:#F1F3F8}
    .fil104 {fill:#E6755C}
    .fil105 {fill:#E56F57}
    .fil207 {fill:#F0F2F9}
    .fil193 {fill:#F0F1F7}
    .fil106 {fill:#E46952}
    .fil107 {fill:#E4644F}
    .fil108 {fill:#E3604B}
    .fil109 {fill:#E35C49}
    .fil57 {fill:#F0F7EF}
    .fil110 {fill:#E25947}
    .fil111 {fill:#E25545}
    .fil112 {fill:#E25343}
    .fil113 {fill:#E15042}
    .fil114 {fill:#E14E41}
    .fil208 {fill:#EEF1F7}
    .fil192 {fill:#EEF0F7}
    .fil115 {fill:#E04B40}
    .fil116 {fill:#E04A3F}
    .fil117 {fill:#E0483E}
    .fil118 {fill:#DF463E}
    .fil119 {fill:#DF453D}
    .fil120 {fill:#DF443C}
    .fil121 {fill:#DF433C}
    .fil122 {fill:#DF423C}
    .fil123 {fill:#DF413B}
    .fil124 {fill:#DF403B}
    .fil125 {fill:#DF3F3B}
    .fil126 {fill:#DF3E3A}
    .fil127 {fill:#DF3D3A}
    .fil128 {fill:#DF3C3A}
    .fil56 {fill:#EEF7ED}
    .fil209 {fill:#EDEFF6}
    .fil129 {fill:#DE3C3A}
    .fil130 {fill:#DE3B3A}
    .fil131 {fill:#DE3A39}
    .fil132 {fill:#DE3939}
    .fil133 {fill:#DE3839}
    .fil134 {fill:#DE3739}
    .fil135 {fill:#DE3638}
    .fil136 {fill:#DE3538}
    .fil137 {fill:#DE3438}
    .fil138 {fill:#DE3338}
    .fil191 {fill:#ECEEF6}
    .fil55 {fill:#EDF6EB}
    .fil190 {fill:#EAEDF6}
    .fil54 {fill:#EBF5E9}
    .fil210 {fill:#E8EBF5}
    .fil189 {fill:#E7EAF4}
    .fil53 {fill:#E8F3E5}
    .fil211 {fill:#E5E9F4}
    .fil188 {fill:#E4E8F3}
    .fil52 {fill:#E5F2E2}
    .fil212 {fill:#E2E6F3}
    .fil187 {fill:#E1E5F1}
    .fil51 {fill:#E2F0DF}
    .fil213 {fill:#DEE4F2}
    .fil186 {fill:#DDE2F0}
    .fil50 {fill:#DFEFDC}
    .fil214 {fill:#DBE1F1}
    .fil185 {fill:#D9DFEE}
    .fil49 {fill:#DBEDD7}
    .fil215 {fill:#D6DDEE}
    .fil184 {fill:#D4DBED}
    .fil48 {fill:#D6EBD2}
    .fil216 {fill:#D1DAEC}
    .fil183 {fill:#CFD7EA}
    .fil47 {fill:#D1E8CC}
    .fil217 {fill:#CCD6EA}
    .fil182 {fill:#C8D2E8}
    .fil46 {fill:#CCE6C6}
    .fil218 {fill:#C5D1E8}
    .fil181 {fill:#C2CEE5}
    .fil45 {fill:#C5E2BF}
    .fil219 {fill:#BFCCE5}
    .fil180 {fill:#BAC8E2}
    .fil220 {fill:#B7C7E3}
    .fil44 {fill:#BDDFB7}
    .fil179 {fill:#B2C2DF}
    .fil221 {fill:#AFC1E0}
    .fil43 {fill:#B5DBAE}
    .fil178 {fill:#A8BBDB}
    .fil222 {fill:#A5B9DC}
    .fil42 {fill:#ABD7A4}
    .fil177 {fill:#9EB3D7}
    .fil223 {fill:#9BB2D8}
    .fil41 {fill:#9FD299}
    .fil176 {fill:#93ABD2}
    .fil40 {fill:#95CE91}
    .fil224 {fill:#90AAD3}
    .fil39 {fill:#8DCB89}
    .fil175 {fill:#89A4CF}
    .fil225 {fill:#84A2CF}
    .fil38 {fill:#86C882}
    .fil174 {fill:#819ECB}
    .fil37 {fill:#80C67C}
    .fil226 {fill:#7B9DCC}
    .fil173 {fill:#7A9AC9}
    .fil36 {fill:#7AC477}
    .fil35 {fill:#75C272}
    .fil227 {fill:#7397C9}
    .fil172 {fill:#7496C7}
    .fil34 {fill:#71C16E}
    .fil171 {fill:#6E93C4}
    .fil33 {fill:#6DC06A}
    .fil228 {fill:#6C93C6}
    .fil32 {fill:#6ABF68}
    .fil170 {fill:#6A90C3}
    .fil31 {fill:#65BD66}
    .fil229 {fill:#668FC4}
    .fil30 {fill:#63BD63}
    .fil169 {fill:#658DC1}
    .fil29 {fill:#60BC62}
    .fil230 {fill:#618CC2}
    .fil168 {fill:#628CC0}
    .fil28 {fill:#5EBB60}
    .fil27 {fill:#5CBB5E}
    .fil167 {fill:#5F8ABF}
    .fil26 {fill:#5ABA5D}
    .fil25 {fill:#58BA5C}
    .fil231 {fill:#5C8AC1}
    .fil166 {fill:#5C88BE}
    .fil24 {fill:#55B95B}
    .fil23 {fill:#54B95B}
    .fil22 {fill:#53B95A}
    .fil165 {fill:#5A87BD}
    .fil21 {fill:#51B959}
    .fil232 {fill:#5888C0}
    .fil20 {fill:#50B858}
    .fil19 {fill:#4EB858}
    .fil164 {fill:#5786BD}
    .fil18 {fill:#4DB858}
    .fil17 {fill:#4DB857}
    .fil16 {fill:#4CB857}
    .fil163 {fill:#5585BC}
    .fil15 {fill:#4AB757}
    .fil14 {fill:#4AB756}
    .fil233 {fill:#5386BF}
    .fil13 {fill:#49B756}
    .fil162 {fill:#5384BB}
    .fil12 {fill:#47B756}
    .fil11 {fill:#47B755}
    .fil10 {fill:#46B755}
    .fil9 {fill:#46B755}
    .fil234 {fill:#5084BE}
    .fil161 {fill:#5283BB}
    .fil8 {fill:#44B654}
    .fil7 {fill:#44B654}
    .fil265 {fill:#282829}
    .fil6 {fill:#43B654}
    .fil5 {fill:#43B654}
    .fil160 {fill:#5082BB}
    .fil4 {fill:#41B654}
    .fil3 {fill:#42B654}
    .fil159 {fill:#4F82BA}
    .fil2 {fill:#40B554}
    .fil1 {fill:#40B553}
    .fil235 {fill:#4D83BC}
    .fil158 {fill:#4D81BA}
    .fil157 {fill:#4C80B9}
    .fil236 {fill:#4A81BC}
    .fil156 {fill:#4B80B9}
    .fil155 {fill:#4A80B9}
    .fil154 {fill:#4980B9}
    .fil237 {fill:#4680BB}
    .fil153 {fill:#487FB9}
    .fil152 {fill:#477FB9}
    .fil151 {fill:#477FB8}
    .fil238 {fill:#457FBB}
    .fil150 {fill:#467EB8}
    .fil149 {fill:#457EB8}
    .fil239 {fill:#427FBA}
    .fil148 {fill:#447EB8}
    .fil147 {fill:#447DB7}
    .fil146 {fill:#437DB7}
    .fil240 {fill:#407EBA}
    .fil145 {fill:#427DB7}
    .fil144 {fill:#427DB7}
    .fil143 {fill:#417CB7}
    .fil241 {fill:#3E7DB9}
    .fil142 {fill:#407CB6}
    .fil141 {fill:#3F7CB6}
    .fil140 {fill:#3F7BB6}
    .fil242 {fill:#3C7CB9}
    .fil139 {fill:#3E7BB6}
    .fil243 {fill:#3B7CB9}
    .fil244 {fill:#397BB8}
    .fil245 {fill:#387BB8}
    .fil246 {fill:#367BB8}
    .fil247 {fill:#347AB8}
    .fil248 {fill:#337AB7}
    .fil249 {fill:#3179B7}
    .fil250 {fill:#3079B6}
    .fil251 {fill:#2E79B6}
    .fil252 {fill:#2D78B6}
    .fil253 {fill:#2B78B6}
    .fil254 {fill:#2C78B6}
    .fil255 {fill:#2A78B6}
    .fil256 {fill:#2977B5}
    .fil257 {fill:#2777B5}
    .fil258 {fill:#2676B5}
    .fil259 {fill:#2476B5}
    .fil260 {fill:#2576B5}
    .fil261 {fill:#2376B5}
    .fil264 {fill:white}
    .fnt1 {font-weight:300;font-size:55.76px;font-family:'Bookman Old Style'}
    .fnt0 {font-weight:300;font-size:102.23px;font-family:'Bookman Old Style'}
   ]]>
  </style>
     <clipPath id="id0">
      <path d="M300.73 460.48l2.94 144.85c101.64,-41.01 203.66,-58.26 285.69,-55.79 179.95,4.48 233.15,73.88 460.35,76 120.58,1.12 224.15,-8.62 319.66,-60.77l0 -137.76c-67.16,70.95 -210.99,126.1 -384.66,122.67 -173.06,0.7 -315.87,-120.67 -497.53,-114.89 -51.09,1.63 -129.41,8.54 -186.45,25.69z"/>
     </clipPath>
     <clipPath id="id1">
      <path d="M300.73 1412.24l2.94 144.85c101.64,-41.01 203.66,-58.26 285.69,-55.79 179.95,4.48 233.15,73.88 460.35,76 120.58,1.12 224.15,-8.62 319.66,-60.77l0 -137.76c-67.16,70.95 -210.99,126.1 -384.66,122.67 -173.06,0.7 -315.87,-120.66 -497.53,-114.88 -51.09,1.62 -129.41,8.53 -186.45,25.68z"/>
     </clipPath>
 </defs>
 <g id="Capa_x0020_1">
  <metadata id="CorelCorpID_0Corel-Layer"/>
  <g id="_2152600344816">
   <path class="fil0 str0" d="M832.23 38.6l790.92 173.51 -77.43 1399.06 -713.49 356.36m0 -1928.93l-790.92 173.51 77.43 1399.06 713.49 356.36"/>
   <path class="fil0 str1" d="M834.45 112.2l714.62 159.86 -69.95 1288.95 -644.67 328.32m0 -1777.13l-714.62 159.86 69.96 1288.95 644.66 328.32"/>
   <g>
    <g style="clip-path:url(#id0)">
     <polygon class="fil1" points="300.73,427.01 306.99,427.01 306.99,626.66 300.73,626.66 "/>
     <polygon id="_1" class="fil1" points="304.9,427.01 311.16,427.01 311.16,626.66 304.9,626.66 "/>
     <polygon id="_2" class="fil1" points="309.08,427.01 315.34,427.01 315.34,626.66 309.08,626.66 "/>
     <polygon id="_3" class="fil1" points="313.25,427.01 319.51,427.01 319.51,626.66 313.25,626.66 "/>
     <polygon id="_4" class="fil1" points="317.43,427.01 323.69,427.01 323.69,626.66 317.43,626.66 "/>
     <polygon id="_5" class="fil1" points="321.6,427.01 327.86,427.01 327.86,626.66 321.6,626.66 "/>
     <polygon id="_6" class="fil1" points="325.77,427.01 332.04,427.01 332.04,626.66 325.77,626.66 "/>
     <polygon id="_7" class="fil1" points="329.95,427.01 336.21,427.01 336.21,626.66 329.95,626.66 "/>
     <polygon id="_8" class="fil1" points="334.12,427.01 340.39,427.01 340.39,626.66 334.12,626.66 "/>
     <polygon id="_9" class="fil1" points="338.3,427.01 344.56,427.01 344.56,626.66 338.3,626.66 "/>
     <polygon id="_10" class="fil1" points="342.47,427.01 348.73,427.01 348.73,626.66 342.47,626.66 "/>
     <polygon id="_11" class="fil1" points="346.65,427.01 352.91,427.01 352.91,626.66 346.65,626.66 "/>
     <polygon id="_12" class="fil1" points="350.82,427.01 357.08,427.01 357.08,626.66 350.82,626.66 "/>
     <polygon id="_13" class="fil1" points="354.99,427.01 361.26,427.01 361.26,626.66 354.99,626.66 "/>
     <polygon id="_14" class="fil1" points="359.17,427.01 365.43,427.01 365.43,626.66 359.17,626.66 "/>
     <polygon id="_15" class="fil1" points="363.34,427.01 369.6,427.01 369.6,626.66 363.34,626.66 "/>
     <polygon id="_16" class="fil1" points="367.52,427.01 373.78,427.01 373.78,626.66 367.52,626.66 "/>
     <polygon id="_17" class="fil1" points="371.69,427.01 377.95,427.01 377.95,626.66 371.69,626.66 "/>
     <polygon id="_18" class="fil1" points="375.87,427.01 382.13,427.01 382.13,626.66 375.87,626.66 "/>
     <polygon id="_19" class="fil1" points="380.04,427.01 386.3,427.01 386.3,626.66 380.04,626.66 "/>
     <polygon id="_20" class="fil1" points="384.22,427.01 390.48,427.01 390.48,626.66 384.22,626.66 "/>
     <polygon id="_21" class="fil1" points="388.39,427.01 394.65,427.01 394.65,626.66 388.39,626.66 "/>
     <polygon id="_22" class="fil1" points="392.56,427.01 398.83,427.01 398.83,626.66 392.56,626.66 "/>
     <polygon id="_23" class="fil1" points="396.74,427.01 403,427.01 403,626.66 396.74,626.66 "/>
     <polygon id="_24" class="fil1" points="400.91,427.01 407.17,427.01 407.17,626.66 400.91,626.66 "/>
     <polygon id="_25" class="fil1" points="405.09,427.01 411.35,427.01 411.35,626.66 405.09,626.66 "/>
     <polygon id="_26" class="fil2" points="409.26,427.01 415.52,427.01 415.52,626.66 409.26,626.66 "/>
     <polygon id="_27" class="fil2" points="413.44,427.01 419.7,427.01 419.7,626.66 413.44,626.66 "/>
     <polygon id="_28" class="fil2" points="417.61,427.01 423.87,427.01 423.87,626.66 417.61,626.66 "/>
     <polygon id="_29" class="fil3" points="421.78,427.01 428.05,427.01 428.05,626.66 421.78,626.66 "/>
     <polygon id="_30" class="fil3" points="425.96,427.01 432.22,427.01 432.22,626.66 425.96,626.66 "/>
     <polygon id="_31" class="fil3" points="430.13,427.01 436.4,427.01 436.4,626.66 430.13,626.66 "/>
     <polygon id="_32" class="fil3" points="434.31,427.01 440.57,427.01 440.57,626.66 434.31,626.66 "/>
     <polygon id="_33" class="fil3" points="438.48,427.01 444.74,427.01 444.74,626.66 438.48,626.66 "/>
     <polygon id="_34" class="fil3" points="442.66,427.01 448.92,427.01 448.92,626.66 442.66,626.66 "/>
     <polygon id="_35" class="fil3" points="446.83,427.01 453.09,427.01 453.09,626.66 446.83,626.66 "/>
     <polygon id="_36" class="fil3" points="451.01,427.01 457.27,427.01 457.27,626.66 451.01,626.66 "/>
     <polygon id="_37" class="fil3" points="455.18,427.01 461.44,427.01 461.44,626.66 455.18,626.66 "/>
     <polygon id="_38" class="fil4" points="459.35,427.01 465.62,427.01 465.62,626.66 459.35,626.66 "/>
     <polygon id="_39" class="fil4" points="463.53,427.01 469.79,427.01 469.79,626.66 463.53,626.66 "/>
     <polygon id="_40" class="fil4" points="467.7,427.01 473.96,427.01 473.96,626.66 467.7,626.66 "/>
     <polygon id="_41" class="fil5" points="471.88,427.01 478.14,427.01 478.14,626.66 471.88,626.66 "/>
     <polygon id="_42" class="fil5" points="476.05,427.01 482.31,427.01 482.31,626.66 476.05,626.66 "/>
     <polygon id="_43" class="fil5" points="480.23,427.01 486.49,427.01 486.49,626.66 480.23,626.66 "/>
     <polygon id="_44" class="fil6" points="484.4,427.01 490.66,427.01 490.66,626.66 484.4,626.66 "/>
     <polygon id="_45" class="fil6" points="488.57,427.01 494.84,427.01 494.84,626.66 488.57,626.66 "/>
     <polygon id="_46" class="fil6" points="492.75,427.01 499.01,427.01 499.01,626.66 492.75,626.66 "/>
     <polygon id="_47" class="fil6" points="496.92,427.01 503.19,427.01 503.19,626.66 496.92,626.66 "/>
     <polygon id="_48" class="fil7" points="501.1,427.01 507.36,427.01 507.36,626.66 501.1,626.66 "/>
     <polygon id="_49" class="fil8" points="505.27,427.01 511.53,427.01 511.53,626.66 505.27,626.66 "/>
     <polygon id="_50" class="fil8" points="509.45,427.01 515.71,427.01 515.71,626.66 509.45,626.66 "/>
     <polygon id="_51" class="fil8" points="513.62,427.01 519.88,427.01 519.88,626.66 513.62,626.66 "/>
     <polygon id="_52" class="fil9" points="517.8,427.01 524.06,427.01 524.06,626.66 517.8,626.66 "/>
     <polygon id="_53" class="fil9" points="521.97,427.01 528.23,427.01 528.23,626.66 521.97,626.66 "/>
     <polygon id="_54" class="fil10" points="526.14,427.01 532.41,427.01 532.41,626.66 526.14,626.66 "/>
     <polygon id="_55" class="fil11" points="530.32,427.01 536.58,427.01 536.58,626.66 530.32,626.66 "/>
     <polygon id="_56" class="fil11" points="534.49,427.01 540.75,427.01 540.75,626.66 534.49,626.66 "/>
     <polygon id="_57" class="fil12" points="538.67,427.01 544.93,427.01 544.93,626.66 538.67,626.66 "/>
     <polygon id="_58" class="fil13" points="542.84,427.01 549.1,427.01 549.1,626.66 542.84,626.66 "/>
     <polygon id="_59" class="fil13" points="547.02,427.01 553.28,427.01 553.28,626.66 547.02,626.66 "/>
     <polygon id="_60" class="fil14" points="551.19,427.01 557.45,427.01 557.45,626.66 551.19,626.66 "/>
     <polygon id="_61" class="fil15" points="555.36,427.01 561.63,427.01 561.63,626.66 555.36,626.66 "/>
     <polygon id="_62" class="fil16" points="559.54,427.01 565.8,427.01 565.8,626.66 559.54,626.66 "/>
     <polygon id="_63" class="fil17" points="563.71,427.01 569.98,427.01 569.98,626.66 563.71,626.66 "/>
     <polygon id="_64" class="fil18" points="567.89,427.01 574.15,427.01 574.15,626.66 567.89,626.66 "/>
     <polygon id="_65" class="fil19" points="572.06,427.01 578.32,427.01 578.32,626.66 572.06,626.66 "/>
     <polygon id="_66" class="fil20" points="576.24,427.01 582.5,427.01 582.5,626.66 576.24,626.66 "/>
     <polygon id="_67" class="fil21" points="580.41,427.01 586.67,427.01 586.67,626.66 580.41,626.66 "/>
     <polygon id="_68" class="fil22" points="584.58,427.01 590.85,427.01 590.85,626.66 584.58,626.66 "/>
     <polygon id="_69" class="fil23" points="588.76,427.01 595.02,427.01 595.02,626.66 588.76,626.66 "/>
     <polygon id="_70" class="fil24" points="592.93,427.01 599.19,427.01 599.19,626.66 592.93,626.66 "/>
     <polygon id="_71" class="fil25" points="597.11,427.01 603.37,427.01 603.37,626.66 597.11,626.66 "/>
     <polygon id="_72" class="fil26" points="601.28,427.01 607.54,427.01 607.54,626.66 601.28,626.66 "/>
     <polygon id="_73" class="fil27" points="605.46,427.01 611.72,427.01 611.72,626.66 605.46,626.66 "/>
     <polygon id="_74" class="fil28" points="609.63,427.01 615.89,427.01 615.89,626.66 609.63,626.66 "/>
     <polygon id="_75" class="fil29" points="613.81,427.01 620.07,427.01 620.07,626.66 613.81,626.66 "/>
     <polygon id="_76" class="fil30" points="617.98,427.01 624.24,427.01 624.24,626.66 617.98,626.66 "/>
     <polygon id="_77" class="fil31" points="622.15,427.01 628.42,427.01 628.42,626.66 622.15,626.66 "/>
     <polygon id="_78" class="fil32" points="626.33,427.01 632.59,427.01 632.59,626.66 626.33,626.66 "/>
     <polygon id="_79" class="fil33" points="630.5,427.01 636.76,427.01 636.76,626.66 630.5,626.66 "/>
     <polygon id="_80" class="fil34" points="634.68,427.01 640.94,427.01 640.94,626.66 634.68,626.66 "/>
     <polygon id="_81" class="fil35" points="638.85,427.01 645.11,427.01 645.11,626.66 638.85,626.66 "/>
     <polygon id="_82" class="fil36" points="643.03,427.01 649.29,427.01 649.29,626.66 643.03,626.66 "/>
     <polygon id="_83" class="fil37" points="647.2,427.01 653.46,427.01 653.46,626.66 647.2,626.66 "/>
     <polygon id="_84" class="fil38" points="651.37,427.01 657.64,427.01 657.64,626.66 651.37,626.66 "/>
     <polygon id="_85" class="fil39" points="655.55,427.01 661.81,427.01 661.81,626.66 655.55,626.66 "/>
     <polygon id="_86" class="fil40" points="659.72,427.01 665.99,427.01 665.99,626.66 659.72,626.66 "/>
     <polygon id="_87" class="fil41" points="663.9,427.01 670.16,427.01 670.16,626.66 663.9,626.66 "/>
     <polygon id="_88" class="fil42" points="668.07,427.01 674.33,427.01 674.33,626.66 668.07,626.66 "/>
     <polygon id="_89" class="fil43" points="672.25,427.01 678.51,427.01 678.51,626.66 672.25,626.66 "/>
     <polygon id="_90" class="fil44" points="676.42,427.01 682.68,427.01 682.68,626.66 676.42,626.66 "/>
     <polygon id="_91" class="fil45" points="680.6,427.01 686.86,427.01 686.86,626.66 680.6,626.66 "/>
     <polygon id="_92" class="fil46" points="684.77,427.01 691.03,427.01 691.03,626.66 684.77,626.66 "/>
     <polygon id="_93" class="fil47" points="688.94,427.01 695.21,427.01 695.21,626.66 688.94,626.66 "/>
     <polygon id="_94" class="fil48" points="693.12,427.01 699.38,427.01 699.38,626.66 693.12,626.66 "/>
     <polygon id="_95" class="fil49" points="697.29,427.01 703.55,427.01 703.55,626.66 697.29,626.66 "/>
     <polygon id="_96" class="fil50" points="701.47,427.01 707.73,427.01 707.73,626.66 701.47,626.66 "/>
     <polygon id="_97" class="fil51" points="705.64,427.01 711.9,427.01 711.9,626.66 705.64,626.66 "/>
     <polygon id="_98" class="fil52" points="709.82,427.01 716.08,427.01 716.08,626.66 709.82,626.66 "/>
     <polygon id="_99" class="fil53" points="713.99,427.01 720.25,427.01 720.25,626.66 713.99,626.66 "/>
     <polygon id="_100" class="fil54" points="718.16,427.01 724.43,427.01 724.43,626.66 718.16,626.66 "/>
     <polygon id="_101" class="fil55" points="722.34,427.01 728.6,427.01 728.6,626.66 722.34,626.66 "/>
     <polygon id="_102" class="fil56" points="726.51,427.01 732.78,427.01 732.78,626.66 726.51,626.66 "/>
     <polygon id="_103" class="fil57" points="730.69,427.01 736.95,427.01 736.95,626.66 730.69,626.66 "/>
     <polygon id="_104" class="fil58" points="734.86,427.01 741.12,427.01 741.12,626.66 734.86,626.66 "/>
     <polygon id="_105" class="fil59" points="739.04,427.01 745.3,427.01 745.3,626.66 739.04,626.66 "/>
     <polygon id="_106" class="fil60" points="743.21,427.01 749.47,427.01 749.47,626.66 743.21,626.66 "/>
     <polygon id="_107" class="fil61" points="747.39,427.01 753.65,427.01 753.65,626.66 747.39,626.66 "/>
     <polygon id="_108" class="fil62" points="751.56,427.01 757.82,427.01 757.82,626.66 751.56,626.66 "/>
     <polygon id="_109" class="fil63" points="755.73,427.01 762,427.01 762,626.66 755.73,626.66 "/>
     <polygon id="_110" class="fil64" points="759.91,427.01 766.17,427.01 766.17,626.66 759.91,626.66 "/>
     <polygon id="_111" class="fil65" points="764.08,427.01 770.34,427.01 770.34,626.66 764.08,626.66 "/>
     <polygon id="_112" class="fil65" points="768.26,427.01 774.52,427.01 774.52,626.66 768.26,626.66 "/>
     <polygon id="_113" class="fil66" points="772.43,427.01 778.69,427.01 778.69,626.66 772.43,626.66 "/>
     <polygon id="_114" class="fil67" points="776.61,427.01 782.87,427.01 782.87,626.66 776.61,626.66 "/>
     <polygon id="_115" class="fil68" points="780.78,427.01 787.04,427.01 787.04,626.66 780.78,626.66 "/>
     <polygon id="_116" class="fil69" points="784.96,427.01 791.22,427.01 791.22,626.66 784.96,626.66 "/>
     <polygon id="_117" class="fil69" points="789.13,427.01 795.39,427.01 795.39,626.66 789.13,626.66 "/>
     <polygon id="_118" class="fil69" points="793.3,427.01 799.57,427.01 799.57,626.66 793.3,626.66 "/>
     <polygon id="_119" class="fil70" points="797.48,427.01 803.74,427.01 803.74,626.66 797.48,626.66 "/>
     <polygon id="_120" class="fil71" points="801.65,427.01 807.91,427.01 807.91,626.66 801.65,626.66 "/>
     <polygon id="_121" class="fil71" points="805.83,427.01 812.09,427.01 812.09,626.66 805.83,626.66 "/>
     <polygon id="_122" class="fil71" points="810,427.01 816.26,427.01 816.26,626.66 810,626.66 "/>
     <polygon id="_123" class="fil71" points="814.17,427.01 820.44,427.01 820.44,626.66 814.17,626.66 "/>
     <polygon id="_124" class="fil71" points="818.35,427.01 824.61,427.01 824.61,626.66 818.35,626.66 "/>
     <polygon id="_125" class="fil71" points="822.52,427.01 828.78,427.01 828.78,626.66 822.52,626.66 "/>
     <polygon id="_126" class="fil71" points="826.7,427.01 832.96,427.01 832.96,626.66 826.7,626.66 "/>
     <polygon id="_127" class="fil71" points="830.87,427.01 837.13,427.01 837.13,626.66 830.87,626.66 "/>
     <polygon id="_128" class="fil71" points="835.05,427.01 841.31,427.01 841.31,626.66 835.05,626.66 "/>
     <polygon id="_129" class="fil71" points="839.22,427.01 845.48,427.01 845.48,626.66 839.22,626.66 "/>
     <polygon id="_130" class="fil71" points="843.4,427.01 849.66,427.01 849.66,626.66 843.4,626.66 "/>
     <polygon id="_131" class="fil72" points="847.57,427.01 853.83,427.01 853.83,626.66 847.57,626.66 "/>
     <polygon id="_132" class="fil72" points="851.74,427.01 858.01,427.01 858.01,626.66 851.74,626.66 "/>
     <polygon id="_133" class="fil72" points="855.92,427.01 862.18,427.01 862.18,626.66 855.92,626.66 "/>
     <polygon id="_134" class="fil72" points="860.09,427.01 866.35,427.01 866.35,626.66 860.09,626.66 "/>
     <polygon id="_135" class="fil73" points="864.27,427.01 870.53,427.01 870.53,626.66 864.27,626.66 "/>
     <polygon id="_136" class="fil73" points="868.44,427.01 874.7,427.01 874.7,626.66 868.44,626.66 "/>
     <polygon id="_137" class="fil74" points="872.62,427.01 878.88,427.01 878.88,626.66 872.62,626.66 "/>
     <polygon id="_138" class="fil74" points="876.79,427.01 883.05,427.01 883.05,626.66 876.79,626.66 "/>
     <polygon id="_139" class="fil75" points="880.96,427.01 887.23,427.01 887.23,626.66 880.96,626.66 "/>
     <polygon id="_140" class="fil76" points="885.14,427.01 891.4,427.01 891.4,626.66 885.14,626.66 "/>
     <polygon id="_141" class="fil77" points="889.31,427.01 895.58,427.01 895.58,626.66 889.31,626.66 "/>
     <polygon id="_142" class="fil78" points="893.49,427.01 899.75,427.01 899.75,626.66 893.49,626.66 "/>
     <polygon id="_143" class="fil79" points="897.66,427.01 903.92,427.01 903.92,626.66 897.66,626.66 "/>
     <polygon id="_144" class="fil80" points="901.84,427.01 908.1,427.01 908.1,626.66 901.84,626.66 "/>
     <polygon id="_145" class="fil81" points="906.01,427.01 912.27,427.01 912.27,626.66 906.01,626.66 "/>
     <polygon id="_146" class="fil82" points="910.19,427.01 916.45,427.01 916.45,626.66 910.19,626.66 "/>
     <polygon id="_147" class="fil83" points="914.36,427.01 920.62,427.01 920.62,626.66 914.36,626.66 "/>
     <polygon id="_148" class="fil84" points="918.53,427.01 924.8,427.01 924.8,626.66 918.53,626.66 "/>
     <polygon id="_149" class="fil85" points="922.71,427.01 928.97,427.01 928.97,626.66 922.71,626.66 "/>
     <polygon id="_150" class="fil86" points="926.88,427.01 933.14,427.01 933.14,626.66 926.88,626.66 "/>
     <polygon id="_151" class="fil87" points="931.06,427.01 937.32,427.01 937.32,626.66 931.06,626.66 "/>
     <polygon id="_152" class="fil88" points="935.23,427.01 941.49,427.01 941.49,626.66 935.23,626.66 "/>
     <polygon id="_153" class="fil89" points="939.41,427.01 945.67,427.01 945.67,626.66 939.41,626.66 "/>
     <polygon id="_154" class="fil90" points="943.58,427.01 949.84,427.01 949.84,626.66 943.58,626.66 "/>
     <polygon id="_155" class="fil91" points="947.75,427.01 954.02,427.01 954.02,626.66 947.75,626.66 "/>
     <polygon id="_156" class="fil92" points="951.93,427.01 958.19,427.01 958.19,626.66 951.93,626.66 "/>
     <polygon id="_157" class="fil93" points="956.1,427.01 962.37,427.01 962.37,626.66 956.1,626.66 "/>
     <polygon id="_158" class="fil94" points="960.28,427.01 966.54,427.01 966.54,626.66 960.28,626.66 "/>
     <polygon id="_159" class="fil95" points="964.45,427.01 970.71,427.01 970.71,626.66 964.45,626.66 "/>
     <polygon id="_160" class="fil96" points="968.63,427.01 974.89,427.01 974.89,626.66 968.63,626.66 "/>
     <polygon id="_161" class="fil97" points="972.8,427.01 979.06,427.01 979.06,626.66 972.8,626.66 "/>
     <polygon id="_162" class="fil98" points="976.98,427.01 983.24,427.01 983.24,626.66 976.98,626.66 "/>
     <polygon id="_163" class="fil99" points="981.15,427.01 987.41,427.01 987.41,626.66 981.15,626.66 "/>
     <polygon id="_164" class="fil100" points="985.32,427.01 991.59,427.01 991.59,626.66 985.32,626.66 "/>
     <polygon id="_165" class="fil101" points="989.5,427.01 995.76,427.01 995.76,626.66 989.5,626.66 "/>
     <polygon id="_166" class="fil102" points="993.67,427.01 999.93,427.01 999.93,626.66 993.67,626.66 "/>
     <polygon id="_167" class="fil103" points="997.85,427.01 1004.11,427.01 1004.11,626.66 997.85,626.66 "/>
     <polygon id="_168" class="fil104" points="1002.02,427.01 1008.28,427.01 1008.28,626.66 1002.02,626.66 "/>
     <polygon id="_169" class="fil105" points="1006.2,427.01 1012.46,427.01 1012.46,626.66 1006.2,626.66 "/>
     <polygon id="_170" class="fil106" points="1010.37,427.01 1016.63,427.01 1016.63,626.66 1010.37,626.66 "/>
     <polygon id="_171" class="fil107" points="1014.55,427.01 1020.81,427.01 1020.81,626.66 1014.55,626.66 "/>
     <polygon id="_172" class="fil108" points="1018.72,427.01 1024.98,427.01 1024.98,626.66 1018.72,626.66 "/>
     <polygon id="_173" class="fil109" points="1022.89,427.01 1029.16,427.01 1029.16,626.66 1022.89,626.66 "/>
     <polygon id="_174" class="fil110" points="1027.07,427.01 1033.33,427.01 1033.33,626.66 1027.07,626.66 "/>
     <polygon id="_175" class="fil111" points="1031.24,427.01 1037.5,427.01 1037.5,626.66 1031.24,626.66 "/>
     <polygon id="_176" class="fil112" points="1035.42,427.01 1041.68,427.01 1041.68,626.66 1035.42,626.66 "/>
     <polygon id="_177" class="fil113" points="1039.59,427.01 1045.85,427.01 1045.85,626.66 1039.59,626.66 "/>
     <polygon id="_178" class="fil114" points="1043.76,427.01 1050.03,427.01 1050.03,626.66 1043.76,626.66 "/>
     <polygon id="_179" class="fil115" points="1047.94,427.01 1054.2,427.01 1054.2,626.66 1047.94,626.66 "/>
     <polygon id="_180" class="fil116" points="1052.11,427.01 1058.38,427.01 1058.38,626.66 1052.11,626.66 "/>
     <polygon id="_181" class="fil117" points="1056.29,427.01 1062.55,427.01 1062.55,626.66 1056.29,626.66 "/>
     <polygon id="_182" class="fil118" points="1060.46,427.01 1066.72,427.01 1066.72,626.66 1060.46,626.66 "/>
     <polygon id="_183" class="fil119" points="1064.64,427.01 1070.9,427.01 1070.9,626.66 1064.64,626.66 "/>
     <polygon id="_184" class="fil120" points="1068.81,427.01 1075.07,427.01 1075.07,626.66 1068.81,626.66 "/>
     <polygon id="_185" class="fil121" points="1072.99,427.01 1079.25,427.01 1079.25,626.66 1072.99,626.66 "/>
     <polygon id="_186" class="fil122" points="1077.16,427.01 1083.42,427.01 1083.42,626.66 1077.16,626.66 "/>
     <polygon id="_187" class="fil123" points="1081.33,427.01 1087.6,427.01 1087.6,626.66 1081.33,626.66 "/>
     <polygon id="_188" class="fil124" points="1085.51,427.01 1091.77,427.01 1091.77,626.66 1085.51,626.66 "/>
     <polygon id="_189" class="fil125" points="1089.68,427.01 1095.94,427.01 1095.94,626.66 1089.68,626.66 "/>
     <polygon id="_190" class="fil126" points="1093.86,427.01 1100.12,427.01 1100.12,626.66 1093.86,626.66 "/>
     <polygon id="_191" class="fil127" points="1098.03,427.01 1104.29,427.01 1104.29,626.66 1098.03,626.66 "/>
     <polygon id="_192" class="fil128" points="1102.21,427.01 1108.47,427.01 1108.47,626.66 1102.21,626.66 "/>
     <polygon id="_193" class="fil129" points="1106.38,427.01 1112.64,427.01 1112.64,626.66 1106.38,626.66 "/>
     <polygon id="_194" class="fil130" points="1110.55,427.01 1116.82,427.01 1116.82,626.66 1110.55,626.66 "/>
     <polygon id="_195" class="fil131" points="1114.73,427.01 1120.99,427.01 1120.99,626.66 1114.73,626.66 "/>
     <polygon id="_196" class="fil131" points="1118.9,427.01 1125.17,427.01 1125.17,626.66 1118.9,626.66 "/>
     <polygon id="_197" class="fil132" points="1123.08,427.01 1129.34,427.01 1129.34,626.66 1123.08,626.66 "/>
     <polygon id="_198" class="fil132" points="1127.25,427.01 1133.51,427.01 1133.51,626.66 1127.25,626.66 "/>
     <polygon id="_199" class="fil133" points="1131.43,427.01 1137.69,427.01 1137.69,626.66 1131.43,626.66 "/>
     <polygon id="_200" class="fil133" points="1135.6,427.01 1141.86,427.01 1141.86,626.66 1135.6,626.66 "/>
     <polygon id="_201" class="fil133" points="1139.78,427.01 1146.04,427.01 1146.04,626.66 1139.78,626.66 "/>
     <polygon id="_202" class="fil134" points="1143.95,427.01 1150.21,427.01 1150.21,626.66 1143.95,626.66 "/>
     <polygon id="_203" class="fil134" points="1148.12,427.01 1154.39,427.01 1154.39,626.66 1148.12,626.66 "/>
     <polygon id="_204" class="fil134" points="1152.3,427.01 1158.56,427.01 1158.56,626.66 1152.3,626.66 "/>
     <polygon id="_205" class="fil135" points="1156.47,427.01 1162.73,427.01 1162.73,626.66 1156.47,626.66 "/>
     <polygon id="_206" class="fil135" points="1160.65,427.01 1166.91,427.01 1166.91,626.66 1160.65,626.66 "/>
     <polygon id="_207" class="fil135" points="1164.82,427.01 1171.08,427.01 1171.08,626.66 1164.82,626.66 "/>
     <polygon id="_208" class="fil135" points="1169,427.01 1175.26,427.01 1175.26,626.66 1169,626.66 "/>
     <polygon id="_209" class="fil135" points="1173.17,427.01 1179.43,427.01 1179.43,626.66 1173.17,626.66 "/>
     <polygon id="_210" class="fil136" points="1177.34,427.01 1183.61,427.01 1183.61,626.66 1177.34,626.66 "/>
     <polygon id="_211" class="fil136" points="1181.52,427.01 1187.78,427.01 1187.78,626.66 1181.52,626.66 "/>
     <polygon id="_212" class="fil136" points="1185.69,427.01 1191.96,427.01 1191.96,626.66 1185.69,626.66 "/>
     <polygon id="_213" class="fil136" points="1189.87,427.01 1196.13,427.01 1196.13,626.66 1189.87,626.66 "/>
     <polygon id="_214" class="fil136" points="1194.04,427.01 1200.3,427.01 1200.3,626.66 1194.04,626.66 "/>
     <polygon id="_215" class="fil136" points="1198.22,427.01 1204.48,427.01 1204.48,626.66 1198.22,626.66 "/>
     <polygon id="_216" class="fil137" points="1202.39,427.01 1208.65,427.01 1208.65,626.66 1202.39,626.66 "/>
     <polygon id="_217" class="fil137" points="1206.57,427.01 1212.83,427.01 1212.83,626.66 1206.57,626.66 "/>
     <polygon id="_218" class="fil137" points="1210.74,427.01 1217,427.01 1217,626.66 1210.74,626.66 "/>
     <polygon id="_219" class="fil137" points="1214.91,427.01 1221.18,427.01 1221.18,626.66 1214.91,626.66 "/>
     <polygon id="_220" class="fil137" points="1219.09,427.01 1225.35,427.01 1225.35,626.66 1219.09,626.66 "/>
     <polygon id="_221" class="fil137" points="1223.26,427.01 1229.52,427.01 1229.52,626.66 1223.26,626.66 "/>
     <polygon id="_222" class="fil137" points="1227.44,427.01 1233.7,427.01 1233.7,626.66 1227.44,626.66 "/>
     <polygon id="_223" class="fil137" points="1231.61,427.01 1237.87,427.01 1237.87,626.66 1231.61,626.66 "/>
     <polygon id="_224" class="fil137" points="1235.79,427.01 1242.05,427.01 1242.05,626.66 1235.79,626.66 "/>
     <polygon id="_225" class="fil137" points="1239.96,427.01 1246.22,427.01 1246.22,626.66 1239.96,626.66 "/>
     <polygon id="_226" class="fil137" points="1244.14,427.01 1250.4,427.01 1250.4,626.66 1244.14,626.66 "/>
     <polygon id="_227" class="fil137" points="1248.31,427.01 1254.57,427.01 1254.57,626.66 1248.31,626.66 "/>
     <polygon id="_228" class="fil137" points="1252.48,427.01 1258.75,427.01 1258.75,626.66 1252.48,626.66 "/>
     <polygon id="_229" class="fil138" points="1256.66,427.01 1262.92,427.01 1262.92,626.66 1256.66,626.66 "/>
     <polygon id="_230" class="fil138" points="1260.83,427.01 1267.09,427.01 1267.09,626.66 1260.83,626.66 "/>
     <polygon id="_231" class="fil138" points="1265.01,427.01 1271.27,427.01 1271.27,626.66 1265.01,626.66 "/>
     <polygon id="_232" class="fil138" points="1269.18,427.01 1275.44,427.01 1275.44,626.66 1269.18,626.66 "/>
     <polygon id="_233" class="fil138" points="1273.35,427.01 1279.62,427.01 1279.62,626.66 1273.35,626.66 "/>
     <polygon id="_234" class="fil138" points="1277.53,427.01 1283.79,427.01 1283.79,626.66 1277.53,626.66 "/>
     <polygon id="_235" class="fil138" points="1281.7,427.01 1287.97,427.01 1287.97,626.66 1281.7,626.66 "/>
     <polygon id="_236" class="fil138" points="1285.88,427.01 1292.14,427.01 1292.14,626.66 1285.88,626.66 "/>
     <polygon id="_237" class="fil138" points="1290.05,427.01 1296.31,427.01 1296.31,626.66 1290.05,626.66 "/>
     <polygon id="_238" class="fil138" points="1294.23,427.01 1300.49,427.01 1300.49,626.66 1294.23,626.66 "/>
     <polygon id="_239" class="fil138" points="1298.4,427.01 1304.66,427.01 1304.66,626.66 1298.4,626.66 "/>
     <polygon id="_240" class="fil138" points="1302.58,427.01 1308.84,427.01 1308.84,626.66 1302.58,626.66 "/>
     <polygon id="_241" class="fil138" points="1306.75,427.01 1313.01,427.01 1313.01,626.66 1306.75,626.66 "/>
     <polygon id="_242" class="fil138" points="1310.92,427.01 1317.19,427.01 1317.19,626.66 1310.92,626.66 "/>
     <polygon id="_243" class="fil138" points="1315.1,427.01 1321.36,427.01 1321.36,626.66 1315.1,626.66 "/>
     <polygon id="_244" class="fil138" points="1319.27,427.01 1325.53,427.01 1325.53,626.66 1319.27,626.66 "/>
     <polygon id="_245" class="fil138" points="1323.45,427.01 1329.71,427.01 1329.71,626.66 1323.45,626.66 "/>
     <polygon id="_246" class="fil138" points="1327.62,427.01 1333.88,427.01 1333.88,626.66 1327.62,626.66 "/>
     <polygon id="_247" class="fil138" points="1331.8,427.01 1338.06,427.01 1338.06,626.66 1331.8,626.66 "/>
     <polygon id="_248" class="fil138" points="1335.97,427.01 1342.23,427.01 1342.23,626.66 1335.97,626.66 "/>
     <polygon id="_249" class="fil138" points="1340.14,427.01 1346.41,427.01 1346.41,626.66 1340.14,626.66 "/>
     <polygon id="_250" class="fil138" points="1344.32,427.01 1350.58,427.01 1350.58,626.66 1344.32,626.66 "/>
     <polygon id="_251" class="fil138" points="1348.49,427.01 1354.76,427.01 1354.76,626.66 1348.49,626.66 "/>
     <polygon id="_252" class="fil138" points="1352.67,427.01 1358.93,427.01 1358.93,626.66 1352.67,626.66 "/>
     <polygon id="_253" class="fil138" points="1356.84,427.01 1363.1,427.01 1363.1,626.66 1356.84,626.66 "/>
     <polygon id="_254" class="fil138" points="1361.02,427.01 1367.28,427.01 1367.28,626.66 1361.02,626.66 "/>
     <polygon id="_255" class="fil138" points="1365.19,427.01 1369.37,427.01 1369.37,626.66 1365.19,626.66 "/>
    </g>
   </g>
   <g>
    <g style="clip-path:url(#id1)">
     <polygon class="fil139" points="300.73,1378.77 306.99,1378.77 306.99,1578.42 300.73,1578.42 "/>
     <polygon id="_1_0" class="fil139" points="304.9,1378.77 311.16,1378.77 311.16,1578.42 304.9,1578.42 "/>
     <polygon id="_2_1" class="fil139" points="309.08,1378.77 315.34,1378.77 315.34,1578.42 309.08,1578.42 "/>
     <polygon id="_3_2" class="fil139" points="313.25,1378.77 319.51,1378.77 319.51,1578.42 313.25,1578.42 "/>
     <polygon id="_4_3" class="fil139" points="317.43,1378.77 323.69,1378.77 323.69,1578.42 317.43,1578.42 "/>
     <polygon id="_5_4" class="fil139" points="321.6,1378.77 327.86,1378.77 327.86,1578.42 321.6,1578.42 "/>
     <polygon id="_6_5" class="fil139" points="325.77,1378.77 332.04,1378.77 332.04,1578.42 325.77,1578.42 "/>
     <polygon id="_7_6" class="fil139" points="329.95,1378.77 336.21,1378.77 336.21,1578.42 329.95,1578.42 "/>
     <polygon id="_8_7" class="fil139" points="334.12,1378.77 340.39,1378.77 340.39,1578.42 334.12,1578.42 "/>
     <polygon id="_9_8" class="fil139" points="338.3,1378.77 344.56,1378.77 344.56,1578.42 338.3,1578.42 "/>
     <polygon id="_10_9" class="fil139" points="342.47,1378.77 348.73,1378.77 348.73,1578.42 342.47,1578.42 "/>
     <polygon id="_11_10" class="fil139" points="346.65,1378.77 352.91,1378.77 352.91,1578.42 346.65,1578.42 "/>
     <polygon id="_12_11" class="fil139" points="350.82,1378.77 357.08,1378.77 357.08,1578.42 350.82,1578.42 "/>
     <polygon id="_13_12" class="fil139" points="354.99,1378.77 361.26,1378.77 361.26,1578.42 354.99,1578.42 "/>
     <polygon id="_14_13" class="fil139" points="359.17,1378.77 365.43,1378.77 365.43,1578.42 359.17,1578.42 "/>
     <polygon id="_15_14" class="fil139" points="363.34,1378.77 369.6,1378.77 369.6,1578.42 363.34,1578.42 "/>
     <polygon id="_16_15" class="fil139" points="367.52,1378.77 373.78,1378.77 373.78,1578.42 367.52,1578.42 "/>
     <polygon id="_17_16" class="fil139" points="371.69,1378.77 377.95,1378.77 377.95,1578.42 371.69,1578.42 "/>
     <polygon id="_18_17" class="fil139" points="375.87,1378.77 382.13,1378.77 382.13,1578.42 375.87,1578.42 "/>
     <polygon id="_19_18" class="fil139" points="380.04,1378.77 386.3,1378.77 386.3,1578.42 380.04,1578.42 "/>
     <polygon id="_20_19" class="fil139" points="384.22,1378.77 390.48,1378.77 390.48,1578.42 384.22,1578.42 "/>
     <polygon id="_21_20" class="fil139" points="388.39,1378.77 394.65,1378.77 394.65,1578.42 388.39,1578.42 "/>
     <polygon id="_22_21" class="fil139" points="392.56,1378.77 398.83,1378.77 398.83,1578.42 392.56,1578.42 "/>
     <polygon id="_23_22" class="fil139" points="396.74,1378.77 403,1378.77 403,1578.42 396.74,1578.42 "/>
     <polygon id="_24_23" class="fil139" points="400.91,1378.77 407.17,1378.77 407.17,1578.42 400.91,1578.42 "/>
     <polygon id="_25_24" class="fil139" points="405.09,1378.77 411.35,1378.77 411.35,1578.42 405.09,1578.42 "/>
     <polygon id="_26_25" class="fil139" points="409.26,1378.77 415.52,1378.77 415.52,1578.42 409.26,1578.42 "/>
     <polygon id="_27_26" class="fil139" points="413.44,1378.77 419.7,1378.77 419.7,1578.42 413.44,1578.42 "/>
     <polygon id="_28_27" class="fil140" points="417.61,1378.77 423.87,1378.77 423.87,1578.42 417.61,1578.42 "/>
     <polygon id="_29_28" class="fil140" points="421.78,1378.77 428.05,1378.77 428.05,1578.42 421.78,1578.42 "/>
     <polygon id="_30_29" class="fil140" points="425.96,1378.77 432.22,1378.77 432.22,1578.42 425.96,1578.42 "/>
     <polygon id="_31_30" class="fil140" points="430.13,1378.77 436.4,1378.77 436.4,1578.42 430.13,1578.42 "/>
     <polygon id="_32_31" class="fil140" points="434.31,1378.77 440.57,1378.77 440.57,1578.42 434.31,1578.42 "/>
     <polygon id="_33_32" class="fil141" points="438.48,1378.77 444.74,1378.77 444.74,1578.42 438.48,1578.42 "/>
     <polygon id="_34_33" class="fil141" points="442.66,1378.77 448.92,1378.77 448.92,1578.42 442.66,1578.42 "/>
     <polygon id="_35_34" class="fil141" points="446.83,1378.77 453.09,1378.77 453.09,1578.42 446.83,1578.42 "/>
     <polygon id="_36_35" class="fil141" points="451.01,1378.77 457.27,1378.77 457.27,1578.42 451.01,1578.42 "/>
     <polygon id="_37_36" class="fil141" points="455.18,1378.77 461.44,1378.77 461.44,1578.42 455.18,1578.42 "/>
     <polygon id="_38_37" class="fil141" points="459.35,1378.77 465.62,1378.77 465.62,1578.42 459.35,1578.42 "/>
     <polygon id="_39_38" class="fil141" points="463.53,1378.77 469.79,1378.77 469.79,1578.42 463.53,1578.42 "/>
     <polygon id="_40_39" class="fil142" points="467.7,1378.77 473.96,1378.77 473.96,1578.42 467.7,1578.42 "/>
     <polygon id="_41_40" class="fil142" points="471.88,1378.77 478.14,1378.77 478.14,1578.42 471.88,1578.42 "/>
     <polygon id="_42_41" class="fil142" points="476.05,1378.77 482.31,1378.77 482.31,1578.42 476.05,1578.42 "/>
     <polygon id="_43_42" class="fil142" points="480.23,1378.77 486.49,1378.77 486.49,1578.42 480.23,1578.42 "/>
     <polygon id="_44_43" class="fil142" points="484.4,1378.77 490.66,1378.77 490.66,1578.42 484.4,1578.42 "/>
     <polygon id="_45_44" class="fil142" points="488.57,1378.77 494.84,1378.77 494.84,1578.42 488.57,1578.42 "/>
     <polygon id="_46_45" class="fil142" points="492.75,1378.77 499.01,1378.77 499.01,1578.42 492.75,1578.42 "/>
     <polygon id="_47_46" class="fil143" points="496.92,1378.77 503.19,1378.77 503.19,1578.42 496.92,1578.42 "/>
     <polygon id="_48_47" class="fil143" points="501.1,1378.77 507.36,1378.77 507.36,1578.42 501.1,1578.42 "/>
     <polygon id="_49_48" class="fil143" points="505.27,1378.77 511.53,1378.77 511.53,1578.42 505.27,1578.42 "/>
     <polygon id="_50_49" class="fil143" points="509.45,1378.77 515.71,1378.77 515.71,1578.42 509.45,1578.42 "/>
     <polygon id="_51_50" class="fil144" points="513.62,1378.77 519.88,1378.77 519.88,1578.42 513.62,1578.42 "/>
     <polygon id="_52_51" class="fil144" points="517.8,1378.77 524.06,1378.77 524.06,1578.42 517.8,1578.42 "/>
     <polygon id="_53_52" class="fil145" points="521.97,1378.77 528.23,1378.77 528.23,1578.42 521.97,1578.42 "/>
     <polygon id="_54_53" class="fil146" points="526.14,1378.77 532.41,1378.77 532.41,1578.42 526.14,1578.42 "/>
     <polygon id="_55_54" class="fil146" points="530.32,1378.77 536.58,1378.77 536.58,1578.42 530.32,1578.42 "/>
     <polygon id="_56_55" class="fil146" points="534.49,1378.77 540.75,1378.77 540.75,1578.42 534.49,1578.42 "/>
     <polygon id="_57_56" class="fil147" points="538.67,1378.77 544.93,1378.77 544.93,1578.42 538.67,1578.42 "/>
     <polygon id="_58_57" class="fil148" points="542.84,1378.77 549.1,1378.77 549.1,1578.42 542.84,1578.42 "/>
     <polygon id="_59_58" class="fil149" points="547.02,1378.77 553.28,1378.77 553.28,1578.42 547.02,1578.42 "/>
     <polygon id="_60_59" class="fil149" points="551.19,1378.77 557.45,1378.77 557.45,1578.42 551.19,1578.42 "/>
     <polygon id="_61_60" class="fil150" points="555.36,1378.77 561.63,1378.77 561.63,1578.42 555.36,1578.42 "/>
     <polygon id="_62_61" class="fil151" points="559.54,1378.77 565.8,1378.77 565.8,1578.42 559.54,1578.42 "/>
     <polygon id="_63_62" class="fil152" points="563.71,1378.77 569.98,1378.77 569.98,1578.42 563.71,1578.42 "/>
     <polygon id="_64_63" class="fil153" points="567.89,1378.77 574.15,1378.77 574.15,1578.42 567.89,1578.42 "/>
     <polygon id="_65_64" class="fil154" points="572.06,1378.77 578.32,1378.77 578.32,1578.42 572.06,1578.42 "/>
     <polygon id="_66_65" class="fil155" points="576.24,1378.77 582.5,1378.77 582.5,1578.42 576.24,1578.42 "/>
     <polygon id="_67_66" class="fil156" points="580.41,1378.77 586.67,1378.77 586.67,1578.42 580.41,1578.42 "/>
     <polygon id="_68_67" class="fil157" points="584.58,1378.77 590.85,1378.77 590.85,1578.42 584.58,1578.42 "/>
     <polygon id="_69_68" class="fil158" points="588.76,1378.77 595.02,1378.77 595.02,1578.42 588.76,1578.42 "/>
     <polygon id="_70_69" class="fil159" points="592.93,1378.77 599.19,1378.77 599.19,1578.42 592.93,1578.42 "/>
     <polygon id="_71_70" class="fil160" points="597.11,1378.77 603.37,1378.77 603.37,1578.42 597.11,1578.42 "/>
     <polygon id="_72_71" class="fil161" points="601.28,1378.77 607.54,1378.77 607.54,1578.42 601.28,1578.42 "/>
     <polygon id="_73_72" class="fil162" points="605.46,1378.77 611.72,1378.77 611.72,1578.42 605.46,1578.42 "/>
     <polygon id="_74_73" class="fil163" points="609.63,1378.77 615.89,1378.77 615.89,1578.42 609.63,1578.42 "/>
     <polygon id="_75_74" class="fil164" points="613.81,1378.77 620.07,1378.77 620.07,1578.42 613.81,1578.42 "/>
     <polygon id="_76_75" class="fil165" points="617.98,1378.77 624.24,1378.77 624.24,1578.42 617.98,1578.42 "/>
     <polygon id="_77_76" class="fil166" points="622.15,1378.77 628.42,1378.77 628.42,1578.42 622.15,1578.42 "/>
     <polygon id="_78_77" class="fil167" points="626.33,1378.77 632.59,1378.77 632.59,1578.42 626.33,1578.42 "/>
     <polygon id="_79_78" class="fil168" points="630.5,1378.77 636.76,1378.77 636.76,1578.42 630.5,1578.42 "/>
     <polygon id="_80_79" class="fil169" points="634.68,1378.77 640.94,1378.77 640.94,1578.42 634.68,1578.42 "/>
     <polygon id="_81_80" class="fil170" points="638.85,1378.77 645.11,1378.77 645.11,1578.42 638.85,1578.42 "/>
     <polygon id="_82_81" class="fil171" points="643.03,1378.77 649.29,1378.77 649.29,1578.42 643.03,1578.42 "/>
     <polygon id="_83_82" class="fil172" points="647.2,1378.77 653.46,1378.77 653.46,1578.42 647.2,1578.42 "/>
     <polygon id="_84_83" class="fil173" points="651.37,1378.77 657.64,1378.77 657.64,1578.42 651.37,1578.42 "/>
     <polygon id="_85_84" class="fil174" points="655.55,1378.77 661.81,1378.77 661.81,1578.42 655.55,1578.42 "/>
     <polygon id="_86_85" class="fil175" points="659.72,1378.77 665.99,1378.77 665.99,1578.42 659.72,1578.42 "/>
     <polygon id="_87_86" class="fil176" points="663.9,1378.77 670.16,1378.77 670.16,1578.42 663.9,1578.42 "/>
     <polygon id="_88_87" class="fil177" points="668.07,1378.77 674.33,1378.77 674.33,1578.42 668.07,1578.42 "/>
     <polygon id="_89_88" class="fil178" points="672.25,1378.77 678.51,1378.77 678.51,1578.42 672.25,1578.42 "/>
     <polygon id="_90_89" class="fil179" points="676.42,1378.77 682.68,1378.77 682.68,1578.42 676.42,1578.42 "/>
     <polygon id="_91_90" class="fil180" points="680.6,1378.77 686.86,1378.77 686.86,1578.42 680.6,1578.42 "/>
     <polygon id="_92_91" class="fil181" points="684.77,1378.77 691.03,1378.77 691.03,1578.42 684.77,1578.42 "/>
     <polygon id="_93_92" class="fil182" points="688.94,1378.77 695.21,1378.77 695.21,1578.42 688.94,1578.42 "/>
     <polygon id="_94_93" class="fil183" points="693.12,1378.77 699.38,1378.77 699.38,1578.42 693.12,1578.42 "/>
     <polygon id="_95_94" class="fil184" points="697.29,1378.77 703.55,1378.77 703.55,1578.42 697.29,1578.42 "/>
     <polygon id="_96_95" class="fil185" points="701.47,1378.77 707.73,1378.77 707.73,1578.42 701.47,1578.42 "/>
     <polygon id="_97_96" class="fil186" points="705.64,1378.77 711.9,1378.77 711.9,1578.42 705.64,1578.42 "/>
     <polygon id="_98_97" class="fil187" points="709.82,1378.77 716.08,1378.77 716.08,1578.42 709.82,1578.42 "/>
     <polygon id="_99_98" class="fil188" points="713.99,1378.77 720.25,1378.77 720.25,1578.42 713.99,1578.42 "/>
     <polygon id="_100_99" class="fil189" points="718.16,1378.77 724.43,1378.77 724.43,1578.42 718.16,1578.42 "/>
     <polygon id="_101_100" class="fil190" points="722.34,1378.77 728.6,1378.77 728.6,1578.42 722.34,1578.42 "/>
     <polygon id="_102_101" class="fil191" points="726.51,1378.77 732.78,1378.77 732.78,1578.42 726.51,1578.42 "/>
     <polygon id="_103_102" class="fil192" points="730.69,1378.77 736.95,1378.77 736.95,1578.42 730.69,1578.42 "/>
     <polygon id="_104_103" class="fil193" points="734.86,1378.77 741.12,1378.77 741.12,1578.42 734.86,1578.42 "/>
     <polygon id="_105_104" class="fil194" points="739.04,1378.77 745.3,1378.77 745.3,1578.42 739.04,1578.42 "/>
     <polygon id="_106_105" class="fil195" points="743.21,1378.77 749.47,1378.77 749.47,1578.42 743.21,1578.42 "/>
     <polygon id="_107_106" class="fil196" points="747.39,1378.77 753.65,1378.77 753.65,1578.42 747.39,1578.42 "/>
     <polygon id="_108_107" class="fil197" points="751.56,1378.77 757.82,1378.77 757.82,1578.42 751.56,1578.42 "/>
     <polygon id="_109_108" class="fil198" points="755.73,1378.77 762,1378.77 762,1578.42 755.73,1578.42 "/>
     <polygon id="_110_109" class="fil199" points="759.91,1378.77 766.17,1378.77 766.17,1578.42 759.91,1578.42 "/>
     <polygon id="_111_110" class="fil200" points="764.08,1378.77 770.34,1378.77 770.34,1578.42 764.08,1578.42 "/>
     <polygon id="_112_111" class="fil201" points="768.26,1378.77 774.52,1378.77 774.52,1578.42 768.26,1578.42 "/>
     <polygon id="_113_112" class="fil202" points="772.43,1378.77 778.69,1378.77 778.69,1578.42 772.43,1578.42 "/>
     <polygon id="_114_113" class="fil202" points="776.61,1378.77 782.87,1378.77 782.87,1578.42 776.61,1578.42 "/>
     <polygon id="_115_114" class="fil202" points="780.78,1378.77 787.04,1378.77 787.04,1578.42 780.78,1578.42 "/>
     <polygon id="_116_115" class="fil203" points="784.96,1378.77 791.22,1378.77 791.22,1578.42 784.96,1578.42 "/>
     <polygon id="_117_116" class="fil203" points="789.13,1378.77 795.39,1378.77 795.39,1578.42 789.13,1578.42 "/>
     <polygon id="_118_117" class="fil204" points="793.3,1378.77 799.57,1378.77 799.57,1578.42 793.3,1578.42 "/>
     <polygon id="_119_118" class="fil71" points="797.48,1378.77 803.74,1378.77 803.74,1578.42 797.48,1578.42 "/>
     <polygon id="_120_119" class="fil71" points="801.65,1378.77 807.91,1378.77 807.91,1578.42 801.65,1578.42 "/>
     <polygon id="_121_120" class="fil71" points="805.83,1378.77 812.09,1378.77 812.09,1578.42 805.83,1578.42 "/>
     <polygon id="_122_121" class="fil71" points="810,1378.77 816.26,1378.77 816.26,1578.42 810,1578.42 "/>
     <polygon id="_123_122" class="fil71" points="814.17,1378.77 820.44,1378.77 820.44,1578.42 814.17,1578.42 "/>
     <polygon id="_124_123" class="fil71" points="818.35,1378.77 824.61,1378.77 824.61,1578.42 818.35,1578.42 "/>
     <polygon id="_125_124" class="fil71" points="822.52,1378.77 828.78,1378.77 828.78,1578.42 822.52,1578.42 "/>
     <polygon id="_126_125" class="fil71" points="826.7,1378.77 832.96,1378.77 832.96,1578.42 826.7,1578.42 "/>
     <polygon id="_127_126" class="fil71" points="830.87,1378.77 837.13,1378.77 837.13,1578.42 830.87,1578.42 "/>
     <polygon id="_128_127" class="fil71" points="835.05,1378.77 841.31,1378.77 841.31,1578.42 835.05,1578.42 "/>
     <polygon id="_129_128" class="fil71" points="839.22,1378.77 845.48,1378.77 845.48,1578.42 839.22,1578.42 "/>
     <polygon id="_130_129" class="fil71" points="843.4,1378.77 849.66,1378.77 849.66,1578.42 843.4,1578.42 "/>
     <polygon id="_131_130" class="fil71" points="847.57,1378.77 853.83,1378.77 853.83,1578.42 847.57,1578.42 "/>
     <polygon id="_132_131" class="fil204" points="851.74,1378.77 858.01,1378.77 858.01,1578.42 851.74,1578.42 "/>
     <polygon id="_133_132" class="fil203" points="855.92,1378.77 862.18,1378.77 862.18,1578.42 855.92,1578.42 "/>
     <polygon id="_134_133" class="fil203" points="860.09,1378.77 866.35,1378.77 866.35,1578.42 860.09,1578.42 "/>
     <polygon id="_135_134" class="fil202" points="864.27,1378.77 870.53,1378.77 870.53,1578.42 864.27,1578.42 "/>
     <polygon id="_136_135" class="fil202" points="868.44,1378.77 874.7,1378.77 874.7,1578.42 868.44,1578.42 "/>
     <polygon id="_137_136" class="fil202" points="872.62,1378.77 878.88,1378.77 878.88,1578.42 872.62,1578.42 "/>
     <polygon id="_138_137" class="fil201" points="876.79,1378.77 883.05,1378.77 883.05,1578.42 876.79,1578.42 "/>
     <polygon id="_139_138" class="fil200" points="880.96,1378.77 887.23,1378.77 887.23,1578.42 880.96,1578.42 "/>
     <polygon id="_140_139" class="fil199" points="885.14,1378.77 891.4,1378.77 891.4,1578.42 885.14,1578.42 "/>
     <polygon id="_141_140" class="fil198" points="889.31,1378.77 895.58,1378.77 895.58,1578.42 889.31,1578.42 "/>
     <polygon id="_142_141" class="fil197" points="893.49,1378.77 899.75,1378.77 899.75,1578.42 893.49,1578.42 "/>
     <polygon id="_143_142" class="fil196" points="897.66,1378.77 903.92,1378.77 903.92,1578.42 897.66,1578.42 "/>
     <polygon id="_144_143" class="fil205" points="901.84,1378.77 908.1,1378.77 908.1,1578.42 901.84,1578.42 "/>
     <polygon id="_145_144" class="fil206" points="906.01,1378.77 912.27,1378.77 912.27,1578.42 906.01,1578.42 "/>
     <polygon id="_146_145" class="fil207" points="910.19,1378.77 916.45,1378.77 916.45,1578.42 910.19,1578.42 "/>
     <polygon id="_147_146" class="fil208" points="914.36,1378.77 920.62,1378.77 920.62,1578.42 914.36,1578.42 "/>
     <polygon id="_148_147" class="fil209" points="918.53,1378.77 924.8,1378.77 924.8,1578.42 918.53,1578.42 "/>
     <polygon id="_149_148" class="fil190" points="922.71,1378.77 928.97,1378.77 928.97,1578.42 922.71,1578.42 "/>
     <polygon id="_150_149" class="fil210" points="926.88,1378.77 933.14,1378.77 933.14,1578.42 926.88,1578.42 "/>
     <polygon id="_151_150" class="fil211" points="931.06,1378.77 937.32,1378.77 937.32,1578.42 931.06,1578.42 "/>
     <polygon id="_152_151" class="fil212" points="935.23,1378.77 941.49,1378.77 941.49,1578.42 935.23,1578.42 "/>
     <polygon id="_153_152" class="fil213" points="939.41,1378.77 945.67,1378.77 945.67,1578.42 939.41,1578.42 "/>
     <polygon id="_154_153" class="fil214" points="943.58,1378.77 949.84,1378.77 949.84,1578.42 943.58,1578.42 "/>
     <polygon id="_155_154" class="fil215" points="947.75,1378.77 954.02,1378.77 954.02,1578.42 947.75,1578.42 "/>
     <polygon id="_156_155" class="fil216" points="951.93,1378.77 958.19,1378.77 958.19,1578.42 951.93,1578.42 "/>
     <polygon id="_157_156" class="fil217" points="956.1,1378.77 962.37,1378.77 962.37,1578.42 956.1,1578.42 "/>
     <polygon id="_158_157" class="fil218" points="960.28,1378.77 966.54,1378.77 966.54,1578.42 960.28,1578.42 "/>
     <polygon id="_159_158" class="fil219" points="964.45,1378.77 970.71,1378.77 970.71,1578.42 964.45,1578.42 "/>
     <polygon id="_160_159" class="fil220" points="968.63,1378.77 974.89,1378.77 974.89,1578.42 968.63,1578.42 "/>
     <polygon id="_161_160" class="fil221" points="972.8,1378.77 979.06,1378.77 979.06,1578.42 972.8,1578.42 "/>
     <polygon id="_162_161" class="fil222" points="976.98,1378.77 983.24,1378.77 983.24,1578.42 976.98,1578.42 "/>
     <polygon id="_163_162" class="fil223" points="981.15,1378.77 987.41,1378.77 987.41,1578.42 981.15,1578.42 "/>
     <polygon id="_164_163" class="fil224" points="985.32,1378.77 991.59,1378.77 991.59,1578.42 985.32,1578.42 "/>
     <polygon id="_165_164" class="fil225" points="989.5,1378.77 995.76,1378.77 995.76,1578.42 989.5,1578.42 "/>
     <polygon id="_166_165" class="fil226" points="993.67,1378.77 999.93,1378.77 999.93,1578.42 993.67,1578.42 "/>
     <polygon id="_167_166" class="fil227" points="997.85,1378.77 1004.11,1378.77 1004.11,1578.42 997.85,1578.42 "/>
     <polygon id="_168_167" class="fil228" points="1002.02,1378.77 1008.28,1378.77 1008.28,1578.42 1002.02,1578.42 "/>
     <polygon id="_169_168" class="fil229" points="1006.2,1378.77 1012.46,1378.77 1012.46,1578.42 1006.2,1578.42 "/>
     <polygon id="_170_169" class="fil230" points="1010.37,1378.77 1016.63,1378.77 1016.63,1578.42 1010.37,1578.42 "/>
     <polygon id="_171_170" class="fil231" points="1014.55,1378.77 1020.81,1378.77 1020.81,1578.42 1014.55,1578.42 "/>
     <polygon id="_172_171" class="fil232" points="1018.72,1378.77 1024.98,1378.77 1024.98,1578.42 1018.72,1578.42 "/>
     <polygon id="_173_172" class="fil233" points="1022.89,1378.77 1029.16,1378.77 1029.16,1578.42 1022.89,1578.42 "/>
     <polygon id="_174_173" class="fil234" points="1027.07,1378.77 1033.33,1378.77 1033.33,1578.42 1027.07,1578.42 "/>
     <polygon id="_175_174" class="fil235" points="1031.24,1378.77 1037.5,1378.77 1037.5,1578.42 1031.24,1578.42 "/>
     <polygon id="_176_175" class="fil236" points="1035.42,1378.77 1041.68,1378.77 1041.68,1578.42 1035.42,1578.42 "/>
     <polygon id="_177_176" class="fil237" points="1039.59,1378.77 1045.85,1378.77 1045.85,1578.42 1039.59,1578.42 "/>
     <polygon id="_178_177" class="fil238" points="1043.76,1378.77 1050.03,1378.77 1050.03,1578.42 1043.76,1578.42 "/>
     <polygon id="_179_178" class="fil239" points="1047.94,1378.77 1054.2,1378.77 1054.2,1578.42 1047.94,1578.42 "/>
     <polygon id="_180_179" class="fil240" points="1052.11,1378.77 1058.38,1378.77 1058.38,1578.42 1052.11,1578.42 "/>
     <polygon id="_181_180" class="fil241" points="1056.29,1378.77 1062.55,1378.77 1062.55,1578.42 1056.29,1578.42 "/>
     <polygon id="_182_181" class="fil242" points="1060.46,1378.77 1066.72,1378.77 1066.72,1578.42 1060.46,1578.42 "/>
     <polygon id="_183_182" class="fil243" points="1064.64,1378.77 1070.9,1378.77 1070.9,1578.42 1064.64,1578.42 "/>
     <polygon id="_184_183" class="fil244" points="1068.81,1378.77 1075.07,1378.77 1075.07,1578.42 1068.81,1578.42 "/>
     <polygon id="_185_184" class="fil245" points="1072.99,1378.77 1079.25,1378.77 1079.25,1578.42 1072.99,1578.42 "/>
     <polygon id="_186_185" class="fil246" points="1077.16,1378.77 1083.42,1378.77 1083.42,1578.42 1077.16,1578.42 "/>
     <polygon id="_187_186" class="fil247" points="1081.33,1378.77 1087.6,1378.77 1087.6,1578.42 1081.33,1578.42 "/>
     <polygon id="_188_187" class="fil248" points="1085.51,1378.77 1091.77,1378.77 1091.77,1578.42 1085.51,1578.42 "/>
     <polygon id="_189_188" class="fil249" points="1089.68,1378.77 1095.94,1378.77 1095.94,1578.42 1089.68,1578.42 "/>
     <polygon id="_190_189" class="fil249" points="1093.86,1378.77 1100.12,1378.77 1100.12,1578.42 1093.86,1578.42 "/>
     <polygon id="_191_190" class="fil250" points="1098.03,1378.77 1104.29,1378.77 1104.29,1578.42 1098.03,1578.42 "/>
     <polygon id="_192_191" class="fil251" points="1102.21,1378.77 1108.47,1378.77 1108.47,1578.42 1102.21,1578.42 "/>
     <polygon id="_193_192" class="fil251" points="1106.38,1378.77 1112.64,1378.77 1112.64,1578.42 1106.38,1578.42 "/>
     <polygon id="_194_193" class="fil252" points="1110.55,1378.77 1116.82,1378.77 1116.82,1578.42 1110.55,1578.42 "/>
     <polygon id="_195_194" class="fil252" points="1114.73,1378.77 1120.99,1378.77 1120.99,1578.42 1114.73,1578.42 "/>
     <polygon id="_196_195" class="fil253" points="1118.9,1378.77 1125.17,1378.77 1125.17,1578.42 1118.9,1578.42 "/>
     <polygon id="_197_196" class="fil254" points="1123.08,1378.77 1129.34,1378.77 1129.34,1578.42 1123.08,1578.42 "/>
     <polygon id="_198_197" class="fil255" points="1127.25,1378.77 1133.51,1378.77 1133.51,1578.42 1127.25,1578.42 "/>
     <polygon id="_199_198" class="fil255" points="1131.43,1378.77 1137.69,1378.77 1137.69,1578.42 1131.43,1578.42 "/>
     <polygon id="_200_199" class="fil255" points="1135.6,1378.77 1141.86,1378.77 1141.86,1578.42 1135.6,1578.42 "/>
     <polygon id="_201_200" class="fil256" points="1139.78,1378.77 1146.04,1378.77 1146.04,1578.42 1139.78,1578.42 "/>
     <polygon id="_202_201" class="fil256" points="1143.95,1378.77 1150.21,1378.77 1150.21,1578.42 1143.95,1578.42 "/>
     <polygon id="_203_202" class="fil256" points="1148.12,1378.77 1154.39,1378.77 1154.39,1578.42 1148.12,1578.42 "/>
     <polygon id="_204_203" class="fil257" points="1152.3,1378.77 1158.56,1378.77 1158.56,1578.42 1152.3,1578.42 "/>
     <polygon id="_205_204" class="fil257" points="1156.47,1378.77 1162.73,1378.77 1162.73,1578.42 1156.47,1578.42 "/>
     <polygon id="_206_205" class="fil257" points="1160.65,1378.77 1166.91,1378.77 1166.91,1578.42 1160.65,1578.42 "/>
     <polygon id="_207_206" class="fil257" points="1164.82,1378.77 1171.08,1378.77 1171.08,1578.42 1164.82,1578.42 "/>
     <polygon id="_208_207" class="fil258" points="1169,1378.77 1175.26,1378.77 1175.26,1578.42 1169,1578.42 "/>
     <polygon id="_209_208" class="fil258" points="1173.17,1378.77 1179.43,1378.77 1179.43,1578.42 1173.17,1578.42 "/>
     <polygon id="_210_209" class="fil258" points="1177.34,1378.77 1183.61,1378.77 1183.61,1578.42 1177.34,1578.42 "/>
     <polygon id="_211_210" class="fil258" points="1181.52,1378.77 1187.78,1378.77 1187.78,1578.42 1181.52,1578.42 "/>
     <polygon id="_212_211" class="fil258" points="1185.69,1378.77 1191.96,1378.77 1191.96,1578.42 1185.69,1578.42 "/>
     <polygon id="_213_212" class="fil258" points="1189.87,1378.77 1196.13,1378.77 1196.13,1578.42 1189.87,1578.42 "/>
     <polygon id="_214_213" class="fil258" points="1194.04,1378.77 1200.3,1378.77 1200.3,1578.42 1194.04,1578.42 "/>
     <polygon id="_215_214" class="fil259" points="1198.22,1378.77 1204.48,1378.77 1204.48,1578.42 1198.22,1578.42 "/>
     <polygon id="_216_215" class="fil259" points="1202.39,1378.77 1208.65,1378.77 1208.65,1578.42 1202.39,1578.42 "/>
     <polygon id="_217_216" class="fil259" points="1206.57,1378.77 1212.83,1378.77 1212.83,1578.42 1206.57,1578.42 "/>
     <polygon id="_218_217" class="fil259" points="1210.74,1378.77 1217,1378.77 1217,1578.42 1210.74,1578.42 "/>
     <polygon id="_219_218" class="fil259" points="1214.91,1378.77 1221.18,1378.77 1221.18,1578.42 1214.91,1578.42 "/>
     <polygon id="_220_219" class="fil259" points="1219.09,1378.77 1225.35,1378.77 1225.35,1578.42 1219.09,1578.42 "/>
     <polygon id="_221_220" class="fil259" points="1223.26,1378.77 1229.52,1378.77 1229.52,1578.42 1223.26,1578.42 "/>
     <polygon id="_222_221" class="fil260" points="1227.44,1378.77 1233.7,1378.77 1233.7,1578.42 1227.44,1578.42 "/>
     <polygon id="_223_222" class="fil260" points="1231.61,1378.77 1237.87,1378.77 1237.87,1578.42 1231.61,1578.42 "/>
     <polygon id="_224_223" class="fil260" points="1235.79,1378.77 1242.05,1378.77 1242.05,1578.42 1235.79,1578.42 "/>
     <polygon id="_225_224" class="fil260" points="1239.96,1378.77 1246.22,1378.77 1246.22,1578.42 1239.96,1578.42 "/>
     <polygon id="_226_225" class="fil260" points="1244.14,1378.77 1250.4,1378.77 1250.4,1578.42 1244.14,1578.42 "/>
     <polygon id="_227_226" class="fil260" points="1248.31,1378.77 1254.57,1378.77 1254.57,1578.42 1248.31,1578.42 "/>
     <polygon id="_228_227" class="fil261" points="1252.48,1378.77 1258.75,1378.77 1258.75,1578.42 1252.48,1578.42 "/>
     <polygon id="_229_228" class="fil261" points="1256.66,1378.77 1262.92,1378.77 1262.92,1578.42 1256.66,1578.42 "/>
     <polygon id="_230_229" class="fil261" points="1260.83,1378.77 1267.09,1378.77 1267.09,1578.42 1260.83,1578.42 "/>
     <polygon id="_231_230" class="fil261" points="1265.01,1378.77 1271.27,1378.77 1271.27,1578.42 1265.01,1578.42 "/>
     <polygon id="_232_231" class="fil261" points="1269.18,1378.77 1275.44,1378.77 1275.44,1578.42 1269.18,1578.42 "/>
     <polygon id="_233_232" class="fil261" points="1273.35,1378.77 1279.62,1378.77 1279.62,1578.42 1273.35,1578.42 "/>
     <polygon id="_234_233" class="fil261" points="1277.53,1378.77 1283.79,1378.77 1283.79,1578.42 1277.53,1578.42 "/>
     <polygon id="_235_234" class="fil261" points="1281.7,1378.77 1287.97,1378.77 1287.97,1578.42 1281.7,1578.42 "/>
     <polygon id="_236_235" class="fil261" points="1285.88,1378.77 1292.14,1378.77 1292.14,1578.42 1285.88,1578.42 "/>
     <polygon id="_237_236" class="fil261" points="1290.05,1378.77 1296.31,1378.77 1296.31,1578.42 1290.05,1578.42 "/>
     <polygon id="_238_237" class="fil261" points="1294.23,1378.77 1300.49,1378.77 1300.49,1578.42 1294.23,1578.42 "/>
     <polygon id="_239_238" class="fil261" points="1298.4,1378.77 1304.66,1378.77 1304.66,1578.42 1298.4,1578.42 "/>
     <polygon id="_240_239" class="fil261" points="1302.58,1378.77 1308.84,1378.77 1308.84,1578.42 1302.58,1578.42 "/>
     <polygon id="_241_240" class="fil261" points="1306.75,1378.77 1313.01,1378.77 1313.01,1578.42 1306.75,1578.42 "/>
     <polygon id="_242_241" class="fil261" points="1310.92,1378.77 1317.19,1378.77 1317.19,1578.42 1310.92,1578.42 "/>
     <polygon id="_243_242" class="fil261" points="1315.1,1378.77 1321.36,1378.77 1321.36,1578.42 1315.1,1578.42 "/>
     <polygon id="_244_243" class="fil261" points="1319.27,1378.77 1325.53,1378.77 1325.53,1578.42 1319.27,1578.42 "/>
     <polygon id="_245_244" class="fil261" points="1323.45,1378.77 1329.71,1378.77 1329.71,1578.42 1323.45,1578.42 "/>
     <polygon id="_246_245" class="fil261" points="1327.62,1378.77 1333.88,1378.77 1333.88,1578.42 1327.62,1578.42 "/>
     <polygon id="_247_246" class="fil261" points="1331.8,1378.77 1338.06,1378.77 1338.06,1578.42 1331.8,1578.42 "/>
     <polygon id="_248_247" class="fil261" points="1335.97,1378.77 1342.23,1378.77 1342.23,1578.42 1335.97,1578.42 "/>
     <polygon id="_249_248" class="fil261" points="1340.14,1378.77 1346.41,1378.77 1346.41,1578.42 1340.14,1578.42 "/>
     <polygon id="_250_249" class="fil261" points="1344.32,1378.77 1350.58,1378.77 1350.58,1578.42 1344.32,1578.42 "/>
     <polygon id="_251_250" class="fil261" points="1348.49,1378.77 1354.76,1378.77 1354.76,1578.42 1348.49,1578.42 "/>
     <polygon id="_252_251" class="fil261" points="1352.67,1378.77 1358.93,1378.77 1358.93,1578.42 1352.67,1578.42 "/>
     <polygon id="_253_252" class="fil261" points="1356.84,1378.77 1363.1,1378.77 1363.1,1578.42 1356.84,1578.42 "/>
     <polygon id="_254_253" class="fil261" points="1361.02,1378.77 1367.28,1378.77 1367.28,1578.42 1361.02,1578.42 "/>
     <polygon id="_255_254" class="fil261" points="1365.19,1378.77 1369.37,1378.77 1369.37,1578.42 1365.19,1578.42 "/>
    </g>
   </g>
   <line class="fil0 str2" x1="829.13" y1="613.13" x2="829.13" y2= "1429.41" />
   <line class="fil0 str2" x1="308.23" y1="976.81" x2="1386.55" y2= "976.81" />
   <g>
    <path class="fil0 str3" d="M541.85 1023.77l-50.49 0 0 102.28c-58.76,149.7 -182.65,244.57 50.49,244.57"/>
    <path class="fil0 str3" d="M541.85 1023.77l50.5 0 0 102.28c58.76,149.7 182.64,244.57 -50.5,244.57"/>
   </g>
   <line class="fil0 str4" x1="592.35" y1="1086.27" x2="647.02" y2= "1086.27" />
   <ellipse class="fil262 str2" cx="651.83" cy="1089.62" rx="21.23" ry="14.97"/>
   <g>
    <path class="fil263 str5" d="M541.85 1370.62c233.14,0 109.26,-94.87 50.5,-244.57l0 -39.78 0 -62.5 -50.5 0 -50.49 0 0 102.28c-58.76,149.7 -182.65,244.57 50.49,244.57z"/>
    <line class="fil0 str6" x1="520.18" y1="1205.83" x2="520.18" y2= "1333.14" />
    <line class="fil0 str7" x1="520.18" y1="1326.74" x2="564.11" y2= "1326.74" />
    <line class="fil0 str7" x1="520.18" y1="1289.72" x2="564.11" y2= "1289.72" />
    <line class="fil0 str7" x1="520.18" y1="1251.71" x2="564.11" y2= "1251.71" />
    <line class="fil0 str7" x1="520.18" y1="1215.66" x2="564.11" y2= "1215.66" />
   </g>
   <path class="fil264 str8" d="M1218.62 1046.11c-14.3,-14.72 -46.98,-12.21 -70.66,1.46 -15.71,9.07 -30.45,34.95 -30.48,72.63 -20.18,56.19 -225.32,181.53 -182.64,221.05 42.69,39.52 169.63,-155.92 227.98,-168.86 34.51,1.38 69.54,-3.4 83.19,-17.05 17.5,-17.5 22.03,-57.83 9.6,-75.37 -46.09,42.19 -2.48,2.27 -43.81,40.1 -14.16,4.74 -27.25,2.26 -34.57,-5.44 -7.32,-7.7 -8.16,-18.37 -1.64,-32.65 43.03,-35.87 0,0 43.03,-35.87z"/>
   <g>
    <line class="fil0 str2" x1="1125.95" y1="705.43" x2="1195.29" y2= "705.43" />
    <line class="fil0 str2" x1="1125.95" y1="705.43" x2="1056.61" y2= "705.43" />
    <polyline class="fil0 str2" points="1195.29,705.43 1195.29,772.35 1125.95,772.35 "/>
    <polyline class="fil0 str2" points="1056.61,705.43 1056.61,772.35 1125.95,772.35 "/>
    <path class="fil0 str2" d="M1195.29 772.35l0 116.37c0,0 -2.32,19.39 -19.96,37.03 -16.33,16.33 -26.61,17.77 -49.38,17.77"/>
    <path class="fil0 str2" d="M1056.61 772.35c0,38.79 0,77.58 0,116.37 -0.28,7.01 17.68,28.87 24.86,34.98 7.18,6.12 20.56,19.82 44.48,19.82"/>
   </g>
   <line class="fil0 str2" x1="1125.95" y1="772.35" x2="1125.95" y2= "705.43" />
   <g>
    <path class="fil71 str4" d="M1125.95 772.35l-69.34 0c0,38.79 0,77.58 0,116.37 -0.28,7.01 17.68,28.87 24.86,34.98 7.18,6.12 20.56,19.82 44.48,19.82 22.77,0 33.05,-1.44 49.38,-17.77 17.64,-17.64 19.96,-37.03 19.96,-37.03l0 -116.37 -69.34 0z"/>
    <polygon class="fil71 str4" points="1056.61,772.35 1125.95,772.35 1125.95,705.43 1056.61,705.43 "/>
    <polygon class="fil71 str4" points="1125.95,705.43 1125.95,772.35 1195.29,772.35 1195.29,705.43 "/>
    <path class="fil0 str4" d="M1125.48 694.72c5.52,-18.41 -11.05,-58.91 -74.93,-25.77 -63.89,33.14 -89.66,15.1 -102.37,-1.84"/>
   </g>
   <g>
    <path class="fil265 str4" d="M417.56 803.98c-0.17,-0.09 -0.35,-0.17 -0.52,-0.27 0.17,0.09 0.35,0.18 0.52,0.27zm0 0c-2.33,-1.19 -4.63,-2.49 -6.88,-3.91 1.38,0.88 2.8,1.72 4.24,2.52 0.7,0.38 1.4,0.76 2.12,1.12 0.17,0.09 0.35,0.18 0.52,0.27zm2.26 1.1c-0.76,-0.35 -1.51,-0.72 -2.26,-1.1 0.75,0.38 1.5,0.74 2.26,1.1zm0 0c-0.75,-0.36 -1.51,-0.72 -2.26,-1.1 0.75,0.37 1.5,0.74 2.26,1.1zm9.23 3.65c-3.17,-1.03 -6.25,-2.25 -9.23,-3.65 3.02,1.42 6.1,2.63 9.23,3.65zm-4.24 -1.53c-1.68,-0.65 -3.35,-1.36 -4.99,-2.13 1.63,0.76 3.29,1.47 4.99,2.13zm3.95 -155.23l-47.53 -21.73 5.98 51.91 -51.22 10.35 35.36 38.49 -35.36 38.48 51.22 10.35 -5.98 51.92 47.53 -21.73 25.67 45.52 4.9 -8.68 0 -34.23c-1.63,0.1 -3.26,0.15 -4.9,0.15 -3.45,0 -6.87,-0.22 -10.25,-0.65 -0.83,-0.1 -1.65,-0.22 -2.48,-0.35 -0.06,-0.01 -0.13,-0.02 -0.19,-0.03 -0.81,-0.13 -1.61,-0.27 -2.41,-0.42 -1.87,-0.36 -3.73,-0.78 -5.59,-1.27 -1.03,-0.27 -2.05,-0.56 -3.07,-0.88 -0.43,-0.13 -0.86,-0.26 -1.28,-0.4 -0.04,-0.01 -0.08,-0.03 -0.11,-0.05 -1.43,-0.47 -2.84,-0.97 -4.24,-1.52 -4.93,-1.92 -9.66,-4.31 -14.13,-7.13 -1.47,-0.93 -2.91,-1.91 -4.31,-2.93 -0.02,-0.02 -0.04,-0.03 -0.07,-0.03 -1.42,-1.03 -2.8,-2.11 -4.13,-3.22 -1.16,-0.96 -2.29,-1.96 -3.4,-2.99 -0.74,-0.68 -1.46,-1.38 -2.16,-2.09 -3.33,-3.32 -6.4,-6.96 -9.14,-10.87 -1.69,-2.41 -3.23,-4.89 -4.64,-7.44 -0.38,-0.7 -0.76,-1.4 -1.12,-2.12 -0.09,-0.17 -0.18,-0.34 -0.27,-0.52 -2.08,-4.11 -3.82,-8.41 -5.19,-12.88 -0.88,-2.86 -1.59,-5.75 -2.15,-8.66 -0.15,-0.8 -0.29,-1.6 -0.42,-2.41 -0.01,-0.06 -0.02,-0.13 -0.03,-0.19 -0.66,-4.18 -1,-8.44 -1,-12.73 0,-3.45 0.22,-6.88 0.65,-10.26 0.1,-0.82 0.22,-1.65 0.35,-2.47 0.01,-0.06 0.02,-0.13 0.03,-0.2 0.59,-3.72 1.45,-7.42 2.57,-11.07 0.13,-0.42 0.26,-0.85 0.4,-1.27 0.01,-0.04 0.03,-0.08 0.04,-0.12 1.03,-3.16 2.25,-6.24 3.65,-9.22 0.35,-0.76 0.72,-1.52 1.1,-2.26 0.09,-0.18 0.18,-0.35 0.27,-0.53 1.69,-3.29 3.61,-6.48 5.76,-9.55 0.26,-0.38 0.53,-0.75 0.8,-1.12 0.01,-0.02 0.03,-0.04 0.04,-0.06 1.93,-2.65 4,-5.16 6.21,-7.53 0.68,-0.74 1.38,-1.46 2.09,-2.17 3.32,-3.33 6.96,-6.39 10.87,-9.13 2.41,-1.69 4.89,-3.24 7.44,-4.64 0.7,-0.39 1.4,-0.76 2.12,-1.13 0.17,-0.09 0.35,-0.18 0.52,-0.27 4.11,-2.07 8.41,-3.81 12.88,-5.18 2.86,-0.88 5.75,-1.6 8.66,-2.15 0.8,-0.15 1.6,-0.29 2.41,-0.42 0.06,-0.01 0.13,-0.02 0.19,-0.03 4.19,-0.66 8.44,-1 12.73,-1 1.64,0 3.27,0.05 4.9,0.15l0 -34.23 -4.9 -8.68 -25.67 45.52zm-13.84 150.62c0.7,0.39 1.4,0.76 2.12,1.12 -0.72,-0.36 -1.42,-0.74 -2.12,-1.12zm-4.25 -2.51c1.39,0.87 2.8,1.71 4.25,2.51 -1.44,-0.79 -2.86,-1.63 -4.25,-2.51zm-3.19 -2.13c1.05,0.73 2.11,1.44 3.19,2.13 -1.08,-0.68 -2.14,-1.39 -3.19,-2.13zm-1.12 -0.8c0.37,0.27 0.75,0.54 1.12,0.8 -0.37,-0.26 -0.75,-0.53 -1.12,-0.8zm-0.06 -0.04c0.02,0.01 0.04,0.03 0.06,0.04 -0.02,-0.01 -0.04,-0.03 -0.06,-0.04z"/>
    <path class="fil265 str4" d="M520.59 682.92c0.27,0.37 0.54,0.74 0.8,1.12 -0.26,-0.38 -0.53,-0.75 -0.8,-1.12zm-19.21 -18.89c-1.05,-0.74 -2.11,-1.45 -3.2,-2.11 1.47,0.92 2.91,1.9 4.32,2.91 -0.37,-0.27 -0.74,-0.54 -1.12,-0.8zm-7.44 -4.64c2.58,1.42 5.06,2.97 7.44,4.64 3.92,2.74 7.55,5.8 10.88,9.13 0.71,0.71 1.4,1.43 2.08,2.17 2.21,2.37 4.28,4.88 6.21,7.53 0.01,0.02 0.03,0.04 0.03,0.07 0.27,0.37 0.54,0.74 0.81,1.11 1.69,2.41 3.24,4.89 4.64,7.44 0.39,0.7 0.76,1.4 1.13,2.11 0.09,0.18 0.18,0.35 0.27,0.53 0.37,0.74 0.74,1.5 1.1,2.26 0.76,1.63 1.47,3.29 2.13,4.98 0.54,1.4 1.05,2.81 1.51,4.24 0.02,0.04 0.03,0.08 0.04,0.12 0.14,0.42 0.27,0.85 0.4,1.27 0.88,2.87 1.6,5.76 2.15,8.67 0.15,0.8 0.29,1.6 0.42,2.4 0.68,4.25 1.03,8.57 1.03,12.93 0,3.45 -0.21,6.87 -0.65,10.25 -0.1,0.83 -0.22,1.66 -0.35,2.48 -0.01,0.06 -0.02,0.13 -0.03,0.19 -0.59,3.73 -1.45,7.43 -2.57,11.07 -0.13,0.43 -0.26,0.86 -0.4,1.28 -0.01,0.04 -0.02,0.08 -0.04,0.11 -1.03,3.17 -2.25,6.25 -3.64,9.23 -0.36,0.76 -0.73,1.51 -1.1,2.26 -0.09,0.18 -0.18,0.35 -0.27,0.52 -1.69,3.3 -3.61,6.49 -5.77,9.56 -0.26,0.37 -0.53,0.75 -0.8,1.12 -0.01,0.02 -0.03,0.04 -0.04,0.06 -1.93,2.65 -4,5.16 -6.21,7.53 -0.68,0.74 -1.37,1.46 -2.08,2.16 -3.33,3.34 -6.96,6.4 -10.88,9.14 -2.4,1.69 -4.89,3.24 -7.44,4.64 -0.7,0.39 -1.4,0.76 -2.11,1.12 -0.18,0.1 -0.35,0.18 -0.53,0.27 -4.1,2.08 -8.41,3.82 -12.87,5.19 -2.87,0.88 -5.76,1.6 -8.67,2.15 -0.72,0.13 -1.44,0.26 -2.16,0.38l0 20.47 12.51 -22.16 47.52 21.73 -1.88 -16.29 -4.1 -35.62 51.22 -10.36 -35.35 -38.48 35.35 -38.49 -51.22 -10.35 5.98 -51.91 -47.52 21.73 -12.51 -22.17 0 20.48c0.72,0.12 1.44,0.24 2.16,0.38 2.91,0.55 5.8,1.27 8.67,2.15 0.42,0.13 0.85,0.26 1.27,0.4 0.04,0.01 0.08,0.02 0.12,0.04 3.97,1.29 7.81,2.88 11.48,4.74 0.18,0.09 0.35,0.18 0.53,0.27 0.71,0.37 1.41,0.74 2.11,1.13z"/>
    <circle class="fil71 str3" cx="454.43" cy="730.99" r="72.05"/>
    <circle class="fil265 str2" cx="454.43" cy="730.99" r="27.21"/>
   </g>
   <g>
    <path class="fil265 str4" d="M637.98 888.46c-0.11,-0.06 -0.22,-0.11 -0.33,-0.16 0.11,0.05 0.22,0.1 0.33,0.16zm0 -0.01c-1.47,-0.68 -2.93,-1.44 -4.36,-2.28 0.88,0.52 1.78,1.01 2.69,1.47 0.44,0.23 0.89,0.45 1.34,0.66 0.11,0.05 0.22,0.1 0.33,0.15zm1.43 0.64c-0.48,-0.2 -0.96,-0.42 -1.43,-0.63 0.47,0.21 0.95,0.43 1.43,0.63zm0 0c-0.48,-0.2 -0.96,-0.42 -1.43,-0.64 0.47,0.22 0.95,0.43 1.43,0.64zm5.8 2.07c-1.99,-0.57 -3.92,-1.26 -5.8,-2.07 1.9,0.81 3.84,1.5 5.8,2.07zm-2.66 -0.86c-1.06,-0.37 -2.11,-0.77 -3.14,-1.21 1.03,0.43 2.07,0.84 3.14,1.21zm-0.81 -96.46l-29.97 -12.5 4.81 32.11 -31.59 7.5 22.76 23.16 -21.14 24.63 32.02 5.35 -2.62 32.37 29.05 -14.5 16.9 27.72 2.85 -5.49 -0.72 -21.25c-1,0.1 -2.02,0.16 -3.03,0.2 -2.14,0.07 -4.27,0.01 -6.38,-0.19 -0.52,-0.05 -1.03,-0.1 -1.55,-0.17 -0.04,0 -0.08,-0.01 -0.12,-0.01 -0.5,-0.06 -1,-0.13 -1.5,-0.21 -1.17,-0.18 -2.34,-0.41 -3.5,-0.67 -0.64,-0.15 -1.29,-0.31 -1.93,-0.48 -0.26,-0.07 -0.53,-0.15 -0.8,-0.23 -0.02,0 -0.04,-0.01 -0.07,-0.03 -0.89,-0.26 -1.78,-0.54 -2.66,-0.85 -3.1,-1.09 -6.09,-2.47 -8.93,-4.13 -0.93,-0.55 -1.84,-1.12 -2.73,-1.73 -0.01,-0.01 -0.03,-0.02 -0.05,-0.02 -0.9,-0.61 -1.78,-1.24 -2.63,-1.91 -0.74,-0.57 -1.46,-1.17 -2.17,-1.78 -0.47,-0.41 -0.94,-0.83 -1.39,-1.25 -2.14,-2 -4.12,-4.19 -5.9,-6.56 -1.1,-1.46 -2.11,-2.97 -3.04,-4.52 -0.25,-0.43 -0.5,-0.86 -0.74,-1.29 -0.06,-0.11 -0.12,-0.22 -0.18,-0.32 -1.37,-2.51 -2.55,-5.15 -3.49,-7.89 -0.61,-1.76 -1.11,-3.54 -1.52,-5.33 -0.11,-0.5 -0.21,-0.99 -0.31,-1.49 0,-0.04 -0.01,-0.08 -0.02,-0.12 -0.5,-2.58 -0.8,-5.22 -0.89,-7.88 -0.07,-2.14 -0.01,-4.28 0.19,-6.38 0.04,-0.52 0.1,-1.03 0.16,-1.55 0.01,-0.04 0.02,-0.08 0.02,-0.12 0.29,-2.32 0.74,-4.64 1.36,-6.93 0.07,-0.26 0.15,-0.53 0.22,-0.8 0.01,-0.02 0.02,-0.05 0.02,-0.07 0.58,-1.99 1.27,-3.92 2.08,-5.8 0.2,-0.48 0.41,-0.96 0.63,-1.43 0.05,-0.11 0.11,-0.22 0.16,-0.33 0.98,-2.08 2.1,-4.11 3.38,-6.06 0.15,-0.23 0.31,-0.47 0.47,-0.71 0.01,-0.01 0.02,-0.02 0.02,-0.04 1.14,-1.68 2.38,-3.29 3.7,-4.8 0.41,-0.47 0.83,-0.94 1.25,-1.39 2,-2.14 4.19,-4.12 6.56,-5.9 1.46,-1.1 2.97,-2.11 4.52,-3.04 0.43,-0.25 0.86,-0.5 1.29,-0.74 0.11,-0.06 0.21,-0.12 0.32,-0.18 2.51,-1.37 5.14,-2.55 7.89,-3.49 1.76,-0.61 3.54,-1.11 5.33,-1.52 0.5,-0.11 0.99,-0.21 1.49,-0.31 0.04,-0.01 0.08,-0.01 0.12,-0.02 2.58,-0.5 5.22,-0.8 7.88,-0.89 1.02,-0.04 2.03,-0.04 3.04,-0.01l-0.72 -21.25 -3.22 -5.29 -14.98 28.81zm-5.43 93.81c0.44,0.22 0.89,0.44 1.34,0.65 -0.45,-0.21 -0.9,-0.43 -1.34,-0.65zm-2.69 -1.48c0.88,0.52 1.78,1.01 2.69,1.48 -0.91,-0.47 -1.81,-0.96 -2.69,-1.48zm-2.02 -1.25c0.66,0.43 1.33,0.85 2.02,1.26 -0.68,-0.4 -1.36,-0.82 -2.02,-1.26zm-0.72 -0.47c0.24,0.16 0.48,0.32 0.72,0.47 -0.24,-0.15 -0.48,-0.31 -0.72,-0.47zm-0.04 -0.03c0.02,0.01 0.03,0.02 0.04,0.03 -0.01,-0.01 -0.02,-0.02 -0.04,-0.03z"/>
    <path class="fil265 str4" d="M699.41 811.12c0.18,0.23 0.35,0.45 0.52,0.68 -0.17,-0.23 -0.34,-0.45 -0.52,-0.68zm-12.33 -11.33c-0.66,-0.43 -1.34,-0.85 -2.03,-1.24 0.93,0.55 1.85,1.12 2.75,1.72 -0.24,-0.16 -0.48,-0.32 -0.72,-0.48zm-4.71 -2.72c1.63,0.83 3.2,1.74 4.71,2.72 2.49,1.63 4.81,3.45 6.95,5.45 0.45,0.42 0.9,0.86 1.34,1.3 1.42,1.42 2.76,2.94 4.01,4.54 0.01,0.02 0.02,0.03 0.02,0.05 0.18,0.22 0.35,0.45 0.53,0.67 1.1,1.46 2.11,2.97 3.04,4.52 0.25,0.43 0.5,0.86 0.74,1.29 0.06,0.11 0.12,0.21 0.18,0.32 0.25,0.46 0.49,0.92 0.73,1.38 0.51,1 0.98,2.02 1.43,3.05 0.36,0.86 0.71,1.72 1.03,2.6 0,0.03 0.01,0.05 0.02,0.07 0.1,0.26 0.19,0.53 0.28,0.79 0.6,1.76 1.11,3.54 1.51,5.33 0.11,0.5 0.22,0.99 0.32,1.49 0.51,2.62 0.82,5.29 0.91,8 0.07,2.14 0.01,4.27 -0.19,6.38 -0.05,0.52 -0.1,1.03 -0.17,1.54 0,0.04 -0.01,0.09 -0.01,0.13 -0.29,2.32 -0.74,4.64 -1.36,6.92 -0.08,0.27 -0.15,0.54 -0.23,0.81 0,0.02 -0.01,0.04 -0.02,0.07 -0.57,1.98 -1.26,3.92 -2.07,5.8 -0.2,0.48 -0.41,0.96 -0.63,1.43 -0.06,0.11 -0.11,0.22 -0.16,0.33 -0.98,2.08 -2.11,4.1 -3.38,6.05 -0.15,0.24 -0.31,0.48 -0.47,0.72 -0.01,0.01 -0.02,0.02 -0.03,0.03 -1.14,1.69 -2.37,3.29 -3.69,4.81 -0.41,0.47 -0.83,0.93 -1.25,1.39 -2,2.14 -4.19,4.11 -6.56,5.9 -1.46,1.1 -2.97,2.11 -4.52,3.04 -0.43,0.25 -0.86,0.5 -1.29,0.74 -0.11,0.06 -0.22,0.12 -0.32,0.18 -2.51,1.37 -5.15,2.54 -7.89,3.49 -1.76,0.6 -3.54,1.11 -5.33,1.51 -0.45,0.1 -0.89,0.2 -1.34,0.28l0.43 12.72 7.3 -14.03 29.97 12.5 -4.81 -32.11 31.59 -7.51 -22.76 -23.15 21.14 -24.64 -32.02 -5.35 2.62 -32.36 -29.05 14.5 -8.23 -13.5 0.43 12.71c0.45,0.06 0.9,0.12 1.35,0.19 1.82,0.28 3.63,0.67 5.42,1.15 0.27,0.07 0.54,0.15 0.81,0.22 0.02,0.01 0.04,0.02 0.07,0.03 2.49,0.72 4.91,1.62 7.23,2.7 0.11,0.05 0.22,0.1 0.33,0.16 0.45,0.21 0.89,0.43 1.34,0.65z"/>
    <circle class="fil71 str3" transform="matrix(1.38556 -0.0468963 0.0468963 1.38556 659.339 842.359)" r="32.29"/>
    <circle class="fil265 str2" transform="matrix(0.52335 -0.0177136 0.0177136 0.52335 659.339 842.359)" r="32.29"/>
   </g>
   <text x="398.76" y="287.3"  class="fil266 fnt0">Escuela N° 4-122</text>
   <text x="233.16" y="402.31"  class="fil266 fnt0">“REPÚBLICA ITALIANA”</text>
   <text x="548.49" y="1665.31"  class="fil266 fnt1">Tupungato - Mendoza</text>
  </g>
 </g>
</svg>
